<?xml version="1.0" encoding="UTF-8" standalone="no"?>
<svg
   viewBox="0 0 1600 1600"
   width="1600"
   height="1600"
   version="1.1"
   id="svg114"
   xmlns="http://www.w3.org/2000/svg"
   xmlns:svg="http://www.w3.org/2000/svg">
  <defs
     id="defs114" />
  <g
     fill="None"
     fill-opacity="0"
     stroke="#fefefe"
     stroke-opacity="1"
     stroke-width="0.3"
     id="g1">
    <path
       d="M 0,1600 H 1600 V 0 H 0 V 1600 M 846,377 c 3.69,4.87 3.38,15.99 4,22 1.12,10.92 3.97,22.11 6,33 2.76,8.74 17.35,10 25,13 18.44,4.93 35.28,12.96 53,20 8.12,3.23 14.11,5.45 21.25,11.75 7.14,6.31 14.38,1.02 20.98,-3.52 6.6,-4.54 13.15,-10.5 19.85,-13.15 6.7,-2.64 14.02,-13.83 20.92,-13.08 5,0.55 8.87,10.05 13.75,12.25 4.87,2.2 8.42,9.64 13,13 4.59,3.35 8.53,9.15 13,13 4.47,3.85 8.55,8.97 13,13 4.45,4.02 8.47,9.21 13.25,12.75 -3.94,10.51 -13.54,20.5 -18.77,30.23 -5.23,9.73 -20.22,20.07 -12.93,30.47 7.3,10.4 12.24,20.84 18.02,31.98 5.78,11.14 11.52,23.09 14.68,35.32 4.89,10.59 9.09,22.78 10,35 10.1,-0.65 19.93,5.38 30.22,5.78 10.29,0.39 21.4,4.63 31.78,5.22 0,31 0,62 0,93 -12.24,1.37 -25.02,5.24 -37.07,6.93 -12.05,1.69 -27.27,2.2 -28.71,15.29 -1.44,13.09 -6.58,22.42 -10.2,33.8 -3.61,11.38 -9.53,20.71 -13.94,31.06 -4.41,10.34 -12.03,17.82 -16.38,27.62 -4.35,9.8 10.77,17.9 13.55,27.05 2.79,9.14 15.63,18.5 17.67,27.33 2.04,8.83 -12.93,16.13 -18.67,23.17 -5.74,7.03 -16.15,13.87 -22.5,21.5 -6.34,7.63 -15.77,15.21 -22.75,22.25 -6.75,-6.68 -14.69,-8.56 -22.23,-14.77 -7.54,-6.21 -15.22,-7.98 -23,-15 -7.78,-7.02 -15.11,-2.04 -23,3.54 -7.89,5.58 -16.32,8.93 -25,13 -8.68,4.08 -16.86,7.63 -26,11 -9.14,3.37 -20.24,5.75 -29.77,8.23 -10.38,2.53 -11.04,7.57 -12.98,17.02 -1.93,9.46 -2.32,16.04 -5.02,24.98 -0.4,1.33 -0.47,3.4 -2,4 0.67,-38.5 -1.33,-78.32 1,-116 2.91,-3.34 14.72,-3.72 19,-5 114.31,-34.22 183.15,-166.38 147,-280 -0.1,-0.32 -0.77,-2.55 -1,-3 -0.14,-0.27 -0.76,-0.73 -1,-1 -7.9,-9.14 -8.77,-25.76 -15.92,-36.08 -7.16,-10.32 -12.73,-21.46 -20.83,-31.17 -8.1,-9.7 -15.01,-18.9 -24.95,-27.05 -9.93,-8.15 -18.97,-15.13 -29.38,-22.62 C 911.5,536.59 898.99,532.54 887.93,526.07 876.86,519.6 859.83,519.1 850,512 c -0.5,-0.02 -1.5,-0.03 -2,0 -10.48,0.73 -19.64,-3.63 -30.22,-3.78 C 807.2,508.07 794.76,508 784,508 c -0.5,0 -1,0 -1,0 -3.11,2.31 -11.8,1.92 -16,2 -3.31,0.07 -5.98,0.47 -9,1 -7.52,2.19 -16.25,4.82 -24.07,6.93 -7.83,2.1 -16.3,5.3 -23.62,8.38 -7.33,3.07 -14.14,6.48 -21,10 -6.87,3.51 -12.79,9.31 -19.39,12.61 -6.6,3.29 -10.94,10.84 -17.17,13.83 -6.22,3 -10.31,13.94 -16.75,15.25 -7.17,1.46 -17.4,-5.52 -25,-6 -7.6,-0.48 -16.05,-5.79 -23.67,-7.33 -7.62,-1.53 -16.32,-5.9 -23.55,-8.45 -7.24,-2.54 -15.75,-4.88 -22.01,-8.99 -6.26,-4.11 -9.73,-11.97 -13.77,-18.23 -3.41,-4.2 -14.16,-14.17 -10.74,-19.74 3.41,-5.58 12.2,-11.17 16.49,-16.51 4.29,-5.34 11.99,-11.99 16.25,-14.75 3.74,-3.74 8.02,-7.6 12,-11 3.82,-3.82 6.53,-7.58 10.75,-11.25 4.22,-3.67 6.51,-9.1 11.25,-6.75 8.41,4.17 15.85,10.6 24,15 8.51,4.59 13.13,7.65 21.25,13.75 8.11,6.1 15.77,-2.39 23.75,-5.75 23.31,-9.83 44.95,-22.45 70,-28 3.38,-1.14 14.94,-3.37 17.25,-6.75 2.3,-3.39 4.56,-14.47 5.75,-18.25 0.54,-3.04 0.6,-5.93 1,-9 1.15,-8.85 2.06,-14.89 3,-24 0.94,-9.11 6.94,-12.58 16,-11 9.06,1.58 18.48,-1.23 27,0 8.52,1.23 19.33,-1.7 27,0 7.67,1.7 21.36,-4.11 26,2 M 596,585 c 6,1.46 11.84,2.96 18,4 13.53,2.29 29.51,5.27 42,10 11.23,4.25 25.9,6.34 38,7 4.76,0.26 13.39,-0.67 17,2 0.5,0 1,0 1,0 7.03,0 15.08,-1.12 22,0 6.92,1.12 13.48,2.58 21,2 7.52,-0.58 15.47,0.12 23,0 7.53,-0.12 15.57,-0.27 23,0 7.43,0.27 15.82,-0.84 23,0 7.18,0.84 16.39,-1.96 23,0 6.61,1.96 2.02,13.85 3,20 0.98,6.15 -0.34,16.15 0,23 0.34,6.85 0.06,15.98 0,23 -0.06,7.02 0.5,16.26 0,23 -0.5,6.74 1.29,17.14 0,23 -1.28,5.86 3.39,18.92 -1,22 -4.24,2.97 -13.62,-1.33 -19,0 -5.38,1.33 -13.11,-0.58 -19,0 -5.89,0.58 -12.9,-0.22 -19,0 -6.1,0.22 -12.84,0 -19,0 -10.97,0 -22.36,1.2 -33,3 -4.07,1.23 -7.97,2.44 -13,3 -20.3,2.27 -41.13,9.59 -60,17 -13.16,7.18 -27.73,14.33 -42,20 -23.44,9.31 -43.59,28.12 -64,43 -5.49,5.08 -13.88,13.66 -19.25,17.75 -5.36,4.1 -14.25,18.86 -19.5,11 -5.26,-7.86 -9.68,-15.28 -13.25,-23.75 -8.49,-20.15 -18.69,-38.93 -25,-60 -1.97,-4.62 -4.18,-8.41 -5,-14 -1.57,-10.75 -4.18,-21.22 -6,-32 -6.11,-20.12 -8.56,-51.35 -4,-73 0.36,-3.82 1,-7.84 1,-12 0,-11.33 2.65,-21.35 4.93,-32.07 2.27,-10.73 5.03,-19.2 8.05,-29.95 3.01,-10.76 7.85,-14.34 10.79,-26.21 2.94,-11.87 12.23,-8.16 21.31,-2.85 9.07,5.32 16.74,7.13 25.95,11.06 9.2,3.92 17.78,7.78 27.19,10.8 9.42,3.01 19.07,6.84 27.78,10.22 m 238,12 c -2.64,3.78 -16.95,0.42 -22,1 -5.05,0.58 -17.91,0.76 -23,0 -5.09,-0.76 -20.27,2.9 -23,-1 -1.56,-2.23 -0.44,-13.03 0,-16 0.44,-2.97 4.5,-7.83 8.23,-8.77 3.73,-0.94 12.05,-0.15 16.77,-0.23 4.72,-0.08 11.93,-0.4 17,0 5.07,0.4 11.97,-1.15 17,0 3.06,0.7 8.27,5.4 8.32,8.68 0.05,3.28 2.8,13.29 0.68,16.32 m 51,72 c 2.05,18.31 -5.28,35.17 -8,53 -1.41,9.27 -5.8,8.64 -15,8 0.19,-12.99 -0.25,-27.13 0,-40 0.25,-12.87 -0.48,-27.55 0,-40 0.48,-12.45 -5.35,-31.64 13,-27 3.56,15.25 8.07,30.29 10,46 m -430,65 c 1.28,16.74 6.89,32.03 11,48 -6.94,-0.27 -13.12,-3.37 -20,-4 -7.28,-3.52 -2.01,-23.26 -3,-32 -0.99,-8.74 -0.26,-25.7 0,-35 0.26,-9.3 -4.87,-28.46 8,-28 -0.01,17.34 2.05,34.14 4,51 m 379,163 c -21.43,1.95 -46.57,1.94 -68,0 -4.42,-4.25 0.27,-15.44 -1,-22 -1.27,-6.56 0.6,-16.76 0,-24 -0.6,-7.24 0.26,-15.41 0,-23 -0.26,-7.59 0.13,-16.27 0,-24 -0.13,-7.73 0.06,-15.19 0,-23 -0.06,-7.81 0.05,-16.14 0,-24 10.77,-0.71 18.97,0.95 30,0 11.03,-0.95 18.03,1.82 30,0 11.97,-1.82 10.59,9.9 10,20 -0.59,10.1 0.31,19.97 0,30 -0.31,10.03 0.24,20.01 0,30 -0.24,9.99 0.34,20.06 0,30 -0.34,9.94 1.09,20.91 -1,30 M 604,844 c 28.25,46.59 76.35,84.55 127,101 10.53,3.42 22.15,2.26 20,16 -2.15,13.74 1.1,23.26 0,36 -1.1,12.74 0.77,23.76 0,36 -0.77,12.24 1.41,23.77 -1,35 -0.82,-9.43 -3.11,-18.86 -4.99,-28.01 -1.89,-9.14 -1.96,-20.67 -14.01,-19.99 -9.54,-2.01 -19.57,-4.88 -28.68,-8.32 -9.11,-3.44 -18.37,-6.5 -27.01,-10.99 -8.65,-4.48 -16.46,-7.68 -24.54,-13.46 -8.08,-5.78 -15.18,-9.46 -23.02,-2.48 -7.83,6.99 -15.83,8.26 -23.5,14.5 -7.66,6.24 -15.41,9.39 -23.25,14.75 -20.84,-21.67 -42.38,-43.21 -64,-64 5.17,-9.87 13.66,-19.54 18.77,-29.23 5.11,-9.69 18,-19.46 12.23,-29.77 -2.6,-4.2 -7.85,-10.29 -9,-15 -1.1,-4.48 11.97,-14.56 16,-18 6.09,-5.2 11.01,-9.74 17.25,-14.75 6.23,-5.02 11.29,-9.05 18,-14 6.7,-4.96 10.54,9.45 13.75,14.75 m 231,259 c 0,14.67 2.23,31.56 4.93,45.07 2.69,13.52 5.21,28.08 9.85,40.15 4.64,12.07 -8.2,21.38 -14.78,30.78 -5.95,8.5 -18.06,4.88 -28,5 -9.94,0.12 -23.8,0.92 -34,0 -12.52,-1.38 -7.26,-20.96 -8,-31 -0.74,-10.04 0.34,-27.31 0,-39 -0.34,-11.69 0.16,-26.54 0,-39 -0.16,-12.46 0.09,-26.12 0,-39 -0.09,-12.88 0.08,-26.93 0,-40 -0.08,-13.07 0.13,-25.79 0,-39 -0.13,-13.21 0.27,-25.5 0,-39 -0.27,-13.5 0.58,-24.89 0,-39 -0.58,-14.11 18.13,-8.26 30,-9 11.87,-0.74 27.76,0.56 40,0 0,64.33 0,128.66 0,193 z"
       id="path1" />
  </g>
  <g
     fill="None"
     fill-opacity="0"
     stroke="#d9f2f9"
     stroke-opacity="1"
     stroke-width="0.3"
     id="g2">
    <path
       d="m 747,410 c 1.12,-4.39 2.18,-11.7 3.93,-16.07 1.74,-4.38 0.1,-13.66 3.07,-16.93 3.81,-4.2 15.85,-0.05 22,-1 6.15,-0.95 17.4,-0.02 24,0 6.6,0.02 16.77,-1.13 23,0 6.23,1.13 18.43,-3.31 23,1 -4.64,-6.11 -18.33,-0.3 -26,-2 -7.67,-1.7 -18.48,1.23 -27,0 -8.52,-1.23 -17.94,1.58 -27,0 -9.06,-1.58 -15.06,1.89 -16,11 -0.94,9.11 -1.85,15.15 -3,24 z"
       id="path2" />
  </g>
  <g
     fill="None"
     fill-opacity="0"
     stroke="#93c0d7"
     stroke-opacity="1"
     stroke-width="0.3"
     id="g3">
    <path
       d="m 754,377 c 30.33,0 60.67,0 91,0 2.05,7.13 2.36,15.39 5,22 -0.62,-6.01 -0.31,-17.13 -4,-22 -4.57,-4.31 -16.77,0.13 -23,-1 -6.23,-1.13 -16.4,0.02 -23,0 -6.6,-0.02 -17.85,-0.95 -24,0 -6.15,0.95 -18.19,-3.2 -22,1 z"
       id="path3" />
  </g>
  <g
     fill="None"
     fill-opacity="0"
     stroke="#358cc4"
     stroke-opacity="1"
     stroke-width="0.3"
     id="g4">
    <path
       d="m 747,410 c -0.4,3.07 -0.46,5.96 -1,9 -0.84,4.67 -2.01,15.57 -4.78,19.22 -2.76,3.66 -13.94,4.83 -18.22,5.78 -25.05,5.55 -46.69,18.17 -70,28 -7.53,4.11 -14.39,13.47 -22.75,7.75 -8.36,-5.72 -14.34,-10.1 -22.25,-15.75 -8.15,-4.4 -15.59,-10.83 -24,-15 -5.88,-1.61 -17.11,13.83 -22,18 -3.98,3.4 -8.26,7.26 -12,11 -10.92,10.92 -21.4,22.86 -33,33 1.37,3.99 4.48,7.76 7,11 6.53,4.71 15.84,6.08 23.22,9.78 7.39,3.69 16.35,5.36 24.01,8.99 7.66,3.63 17.8,5.55 25.79,8.21 8,2.65 17.01,6.85 25.2,7.8 8.19,0.94 19.24,8.31 26.78,7.22 28.77,-28.77 70.23,-46.18 109,-53 3.02,-0.53 5.69,-0.93 9,-1 5.03,-0.82 10.1,-2 16,-2 0,0 0.5,0 1,0 5.03,-3.72 15.49,-0.08 22,-1 6.51,-0.92 15.39,0.76 22,1 6.61,0.24 14.11,2.23 20,4 0.5,-0.03 1.5,-0.02 2,0 18.88,0.77 39.78,13.62 56.7,21.31 16.91,7.68 31.39,20.06 45.55,32.44 14.16,12.39 25.9,26.82 35.67,42.33 9.77,15.52 21.47,34.66 25.08,52.92 0.24,0.27 0.86,0.73 1,1 11.75,-1.52 25.66,5.46 38.67,5.33 13.01,-0.13 27.34,6.67 40.33,6.67 -3.34,-11.63 -5.3,-23.45 -9,-35 -3.16,-12.23 -8.9,-24.18 -14.68,-35.32 -5.78,-11.14 -10.72,-21.58 -18.02,-31.98 -7.29,-10.4 7.7,-20.74 12.93,-30.47 5.23,-9.73 14.83,-19.72 18.77,-30.23 -4.78,-3.54 -8.8,-8.73 -13.25,-12.75 -4.45,-4.03 -8.53,-9.15 -13,-13 -4.47,-3.85 -8.41,-9.65 -13,-13 -4.58,-3.36 -8.13,-10.8 -13,-13 -4.88,-2.2 -8.75,-11.7 -13.75,-12.25 -3.89,0.02 -8.56,7.77 -13.08,8.92 -4.51,1.16 -9.07,7.73 -13.67,9.33 -4.59,1.61 -9.43,7.65 -14,9 -4.56,1.36 -9.08,10.2 -13.93,8.41 -4.84,-1.79 -8.95,-7.14 -14.01,-8.96 -5.07,-1.83 -9.85,-6.27 -14.31,-8.7 -17.72,-7.04 -34.56,-15.07 -53,-20 -9.29,-2.48 -23.03,-2.44 -25,-13 -2.03,-10.89 -4.88,-22.08 -6,-33 -2.64,-6.61 -2.95,-14.87 -5,-22 -30.33,0 -60.67,0 -91,0 -2.97,3.27 -1.33,12.55 -3.07,16.93 -1.75,4.37 -2.81,11.68 -3.93,16.07 z"
       id="path4" />
  </g>
  <g
     fill="None"
     fill-opacity="0"
     stroke="#badeec"
     stroke-opacity="1"
     stroke-width="0.3"
     id="g5">
    <path
       d="m 723,444 c 4.28,-0.95 15.46,-2.12 18.22,-5.78 2.77,-3.65 3.94,-14.55 4.78,-19.22 -1.19,3.78 -3.45,14.86 -5.75,18.25 -2.31,3.38 -13.87,5.61 -17.25,6.75 z"
       id="path5" />
  </g>
  <g
     fill="None"
     fill-opacity="0"
     stroke="#b8dceb"
     stroke-opacity="1"
     stroke-width="0.3"
     id="g6">
    <path
       d="m 881,445 c -7.65,-3 -22.24,-4.26 -25,-13 1.97,10.56 15.71,10.52 25,13 z"
       id="path6" />
  </g>
  <g
     fill="None"
     fill-opacity="0"
     stroke="#75a6c2"
     stroke-opacity="1"
     stroke-width="0.3"
     id="g7">
    <path
       d="m 562,467 c 4.89,-4.17 16.12,-19.61 22,-18 -4.74,-2.35 -7.03,3.08 -11.25,6.75 -4.22,3.67 -6.93,7.43 -10.75,11.25 z"
       id="path7" />
  </g>
  <g
     fill="None"
     fill-opacity="0"
     stroke="#baddeb"
     stroke-opacity="1"
     stroke-width="0.3"
     id="g8">
    <path
       d="m 934,465 c 4.46,2.43 9.24,6.87 14.31,8.7 5.06,1.82 9.17,7.17 14.01,8.96 4.85,1.79 9.37,-7.05 13.93,-8.41 4.57,-1.35 9.41,-7.39 14,-9 4.6,-1.6 9.16,-8.17 13.67,-9.33 4.52,-1.15 9.19,-8.9 13.08,-8.92 -6.9,-0.75 -14.22,10.44 -20.92,13.08 -6.7,2.65 -13.25,8.61 -19.85,13.15 -6.6,4.54 -13.84,9.83 -20.98,3.52 -7.14,-6.3 -13.13,-8.52 -21.25,-11.75 z"
       id="path8" />
  </g>
  <g
     fill="None"
     fill-opacity="0"
     stroke="#c1e2ee"
     stroke-opacity="1"
     stroke-width="0.3"
     id="g9">
    <path
       d="m 653,472 c -7.98,3.36 -15.64,11.85 -23.75,5.75 -8.12,-6.1 -12.74,-9.16 -21.25,-13.75 7.91,5.65 13.89,10.03 22.25,15.75 8.36,5.72 15.22,-3.64 22.75,-7.75 z"
       id="path9" />
  </g>
  <g
     fill="None"
     fill-opacity="0"
     stroke="#bbddeb"
     stroke-opacity="1"
     stroke-width="0.3"
     id="g10">
    <path
       d="m 528,529 c -1.49,-2.32 -2.67,-4.81 -4,-7 -2.52,-3.24 -5.63,-7.01 -7,-11 11.6,-10.14 22.08,-22.08 33,-33 -4.26,2.76 -11.96,9.41 -16.25,14.75 -4.29,5.34 -13.08,10.93 -16.49,16.51 -3.42,5.57 7.33,15.54 10.74,19.74 z"
       id="path10" />
  </g>
  <g
     fill="None"
     fill-opacity="0"
     stroke="#bfe4f1"
     stroke-opacity="1"
     stroke-width="0.3"
     id="g11">
    <path
       d="m 784,508 c 10.76,0 23.2,0.07 33.78,0.22 10.58,0.15 19.74,4.51 30.22,3.78 -5.89,-1.77 -13.39,-3.76 -20,-4 -6.61,-0.24 -15.49,-1.92 -22,-1 -6.51,0.92 -16.97,-2.72 -22,1 z"
       id="path11" />
  </g>
  <g
     fill="None"
     fill-opacity="0"
     stroke="#c0e1ed"
     stroke-opacity="1"
     stroke-width="0.3"
     id="g12">
    <path
       d="m 767,510 c 4.2,-0.08 12.89,0.31 16,-2 -5.9,0 -10.97,1.18 -16,2 z"
       id="path12" />
  </g>
  <g
     fill="None"
     fill-opacity="0"
     stroke="#bbdeea"
     stroke-opacity="1"
     stroke-width="0.3"
     id="g13">
    <path
       d="m 649,564 c -2.93,2.93 -9.27,12.97 -13,14 6.44,-1.31 10.53,-12.25 16.75,-15.25 6.23,-2.99 10.57,-10.54 17.17,-13.83 6.6,-3.3 12.52,-9.1 19.39,-12.61 6.86,-3.52 13.67,-6.93 21,-10 7.32,-3.08 15.79,-6.28 23.62,-8.38 7.82,-2.11 16.55,-4.74 24.07,-6.93 -38.77,6.82 -80.23,24.23 -109,53 z"
       id="path13" />
  </g>
  <g
     fill="None"
     fill-opacity="0"
     stroke="#bee2ed"
     stroke-opacity="1"
     stroke-width="0.3"
     id="g14">
    <path
       d="m 1013,661 c -3.61,-18.26 -15.31,-37.4 -25.08,-52.92 -9.77,-15.51 -21.51,-29.94 -35.67,-42.33 C 938.09,553.37 923.61,540.99 906.7,533.31 889.78,525.62 868.88,512.77 850,512 c 9.83,7.1 26.86,7.6 37.93,14.07 11.06,6.47 23.57,10.52 33.99,18.01 10.41,7.49 19.45,14.47 29.38,22.62 9.94,8.15 16.85,17.35 24.95,27.05 8.1,9.71 13.67,20.85 20.83,31.17 7.15,10.32 8.02,26.94 15.92,36.08 z"
       id="path14" />
  </g>
  <g
     fill="None"
     fill-opacity="0"
     stroke="#276797"
     stroke-opacity="1"
     stroke-width="0.3"
     id="g15">
    <path
       d="m 528,529 c 4.04,6.26 7.51,14.12 13.77,18.23 6.26,4.11 14.77,6.45 22.01,8.99 7.23,2.55 15.93,6.92 23.55,8.45 7.62,1.54 16.07,6.85 23.67,7.33 7.6,0.48 17.83,7.46 25,6 3.73,-1.03 10.07,-11.07 13,-14 -7.54,1.09 -18.59,-6.28 -26.78,-7.22 -8.19,-0.95 -17.2,-5.15 -25.2,-7.8 -7.99,-2.66 -18.13,-4.58 -25.79,-8.21 -7.66,-3.63 -16.62,-5.3 -24.01,-8.99 -7.38,-3.7 -16.69,-5.07 -23.22,-9.78 1.33,2.19 2.51,4.68 4,7 z"
       id="path15" />
  </g>
  <g
     fill="None"
     fill-opacity="0"
     stroke="#bfe1ed"
     stroke-opacity="1"
     stroke-width="0.3"
     id="g16">
    <path
       d="m 470,644 c 3.23,-33.39 14.97,-66.53 29,-97 31.64,14.52 63.72,28 97,38 -8.71,-3.38 -18.36,-7.21 -27.78,-10.22 -9.41,-3.02 -17.99,-6.88 -27.19,-10.8 -9.21,-3.93 -16.88,-5.74 -25.95,-11.06 -9.08,-5.31 -18.37,-9.02 -21.31,2.85 -2.94,11.87 -7.78,15.45 -10.79,26.21 -3.02,10.75 -5.78,19.22 -8.05,29.95 C 472.65,622.65 470,632.67 470,644 Z"
       id="path16" />
  </g>
  <g
     fill="None"
     fill-opacity="0"
     stroke="#348cc3"
     stroke-opacity="1"
     stroke-width="0.3"
     id="g17">
    <path
       d="m 470,644 c 0,4.16 -0.64,8.18 -1,12 -0.77,8.17 0,16.79 0,25 0.61,1.89 5.13,4.97 8,5 0,-5.33 0,-10.67 0,-16 2.92,4.93 -0.93,13.14 2,18 0,-18.93 0.85,-37.41 4,-55 0,-0.98 -0.08,-2.02 0,-3 0.76,-9.06 3.3,-18.73 5.78,-27.22 2.48,-8.5 5.04,-17.87 8.2,-25.8 3.15,-7.94 5.63,-18.82 14.25,-13.21 8.62,5.62 15.14,5.71 23.77,10.23 -15.1,42.81 -26.03,90.76 -18,137 0.09,-0.99 -0.08,-2.01 0,-3 1.38,31.14 26.82,72.93 62.22,64.22 35.4,-8.71 60.08,-23.22 92.85,-35.15 32.77,-11.93 67.3,-23.86 102,-26 34.7,-2.13 72.05,-14.18 73.93,-54.07 0,-15 0,-30 0,-45 -31.17,-0.67 -63.65,1.33 -94,-1 -6.57,0 -14.82,0.23 -21,-1 -6.18,-1.23 -16.26,1.51 -21,-2 0,0 -0.5,0 -1,0 -6.01,0 -11.73,-1.14 -17,-2 -12.1,-0.66 -26.77,-2.75 -38,-7 -14.35,-2.72 -28.46,-6.06 -42,-10 -6.16,-1.04 -12,-2.54 -18,-4 -33.28,-10 -65.36,-23.48 -97,-38 -14.03,30.47 -25.77,63.61 -29,97 z"
       id="path17" />
  </g>
  <g
     fill="None"
     fill-opacity="0"
     stroke="#c7e6ef"
     stroke-opacity="1"
     stroke-width="0.3"
     id="g18">
    <path
       d="m 483,630 c 3.31,-7.69 5.04,-17.3 6.93,-26.07 1.88,-8.78 5.79,-17.31 8.05,-25.95 2.25,-8.65 8.08,-17.86 15.71,-11.67 7.64,6.18 20.23,3.72 18.38,13.76 -1.85,10.04 -6.76,15.58 -8.85,25.15 -2.09,9.58 -4.43,17.25 -6,27 -1.57,9.75 -2.68,20.06 -4,30 -1.31,9.94 0.18,23.4 0.56,33 0.38,9.6 1.68,19.15 3.2,28.8 1.51,9.66 3.59,18.56 7.02,26.98 -3.34,-13.27 -5.33,-26.18 -7,-40 -8.03,-46.24 2.9,-94.19 18,-137 -8.63,-4.52 -15.15,-4.61 -23.77,-10.23 -8.62,-5.61 -11.1,5.27 -14.25,13.21 -3.16,7.93 -5.72,17.3 -8.2,25.8 -2.48,8.49 -5.02,18.16 -5.78,27.22 z"
       id="path18" />
  </g>
  <g
     fill="None"
     fill-opacity="0"
     stroke="#fbfdfd"
     stroke-opacity="1"
     stroke-width="0.3"
     id="g19">
    <path
       d="m 483,630 c -0.08,0.98 0,2.02 0,3 0,14.71 -2.74,28.25 -2.99,43.01 -0.25,14.75 1.42,30.19 1.99,44.99 0.37,9.57 3.25,20.89 4.99,30.01 1.74,9.11 5.85,18.21 8.32,26.68 2.46,8.48 6.45,17.53 10,25 3.54,7.48 7.42,17.32 11.46,23.54 4.04,6.22 8.13,20.64 14.98,15.52 6.85,-5.11 11.91,-11.52 18.5,-16.5 6.59,-4.98 -3.09,-13.97 -6.17,-21.33 -3.09,-7.35 -8.2,-17.12 -11.08,-24.92 -2.7,-4.95 -4.89,-9.05 -6,-15 -0.82,-4.4 -1.91,-8.65 -3,-13 -3.43,-8.42 -5.51,-17.32 -7.02,-26.98 -1.52,-9.65 -2.82,-19.2 -3.2,-28.8 -0.38,-9.6 -1.87,-23.06 -0.56,-33 1.32,-9.94 2.43,-20.25 4,-30 1.57,-9.75 3.91,-17.42 6,-27 2.09,-9.57 7,-15.11 8.85,-25.15 1.85,-10.04 -10.74,-7.58 -18.38,-13.76 -7.63,-6.19 -13.46,3.02 -15.71,11.67 -2.26,8.64 -6.17,17.17 -8.05,25.95 -1.89,8.77 -3.62,18.38 -6.93,26.07 z"
       id="path19" />
  </g>
  <g
     fill="None"
     fill-opacity="0"
     stroke="#696969"
     stroke-opacity="1"
     stroke-width="0.3"
     id="g20">
    <path
       d="m 766,597 c 11.33,0 22.67,0 34,0 0,-8 0,-16 0,-24 8.17,-0.66 17.66,1.33 25,-1 -5.03,-1.15 -11.93,0.4 -17,0 -5.07,-0.4 -12.28,-0.08 -17,0 -4.72,0.08 -13.04,-0.71 -16.77,0.23 -3.73,0.94 -7.79,5.8 -8.23,8.77 -0.44,2.97 -1.56,13.77 0,16 z"
       id="path20" />
  </g>
  <g
     fill="None"
     fill-opacity="0"
     stroke="#535353"
     stroke-opacity="1"
     stroke-width="0.3"
     id="g21">
    <path
       d="m 800,597 c 11.33,0 22.67,0 34,0 2.12,-3.03 -0.63,-13.04 -0.68,-16.32 -0.05,-3.28 -5.26,-7.98 -8.32,-8.68 -7.34,2.33 -16.83,0.34 -25,1 0,8 0,16 0,24 z"
       id="path21" />
  </g>
  <g
     fill="None"
     fill-opacity="0"
     stroke="#c6e6f1"
     stroke-opacity="1"
     stroke-width="0.3"
     id="g22">
    <path
       d="m 656,599 c -12.49,-4.73 -28.47,-7.71 -42,-10 13.54,3.94 27.65,7.28 42,10 z"
       id="path22" />
  </g>
  <g
     fill="None"
     fill-opacity="0"
     stroke="#a8a8a8"
     stroke-opacity="1"
     stroke-width="0.3"
     id="g23">
    <path
       d="m 834,597 c -11.33,0 -22.67,0 -34,0 -11.33,0 -22.67,0 -34,0 2.73,3.9 17.91,0.24 23,1 5.09,0.76 17.95,0.58 23,0 5.05,-0.58 19.36,2.78 22,-1 z"
       id="path23" />
  </g>
  <g
     fill="None"
     fill-opacity="0"
     stroke="#b2d7e7"
     stroke-opacity="1"
     stroke-width="0.3"
     id="g24">
    <path
       d="m 711,608 c -3.61,-2.67 -12.24,-1.74 -17,-2 5.27,0.86 10.99,2 17,2 z"
       id="path24" />
  </g>
  <g
     fill="None"
     fill-opacity="0"
     stroke="#dbf3f9"
     stroke-opacity="1"
     stroke-width="0.3"
     id="g25">
    <path
       d="m 754,611 c 9.81,0 18.03,0.31 28,0 9.97,-0.31 18.59,0.79 29,0 10.41,-0.79 16.47,1.87 28,0 11.53,-1.87 10.74,9.22 10,19 -0.74,9.78 0.32,18.37 0,28 -0.32,9.63 0.16,19.42 0,29 -0.16,9.58 0.08,18.44 0,28 -0.08,9.56 0.06,19.41 0,29 4.39,-3.08 -0.28,-16.14 1,-22 1.29,-5.86 -0.5,-16.26 0,-23 0.5,-6.74 -0.06,-15.98 0,-23 0.06,-7.02 0.34,-16.15 0,-23 -0.34,-6.85 0.98,-16.85 0,-23 -0.98,-6.15 3.61,-18.04 -3,-20 -6.61,-1.96 -15.82,0.84 -23,0 -7.18,-0.84 -15.57,0.27 -23,0 -7.43,-0.27 -15.47,-0.12 -23,0 -7.53,0.12 -15.48,-0.58 -23,0 -7.52,0.58 -14.08,-0.88 -21,-2 -6.92,-1.12 -14.97,0 -22,0 4.74,3.51 14.82,0.77 21,2 6.18,1.23 14.43,1 21,1 z"
       id="path25" />
  </g>
  <g
     fill="None"
     fill-opacity="0"
     stroke="#80abc3"
     stroke-opacity="1"
     stroke-width="0.3"
     id="g26">
    <path
       d="m 848,657 c 0,28.67 0,57.33 0,86 -24.84,0.67 -50.99,-1.33 -75,1 6.16,0 12.9,0.22 19,0 6.1,-0.22 13.11,0.58 19,0 5.89,-0.58 13.62,1.33 19,0 5.38,-1.33 14.76,2.97 19,0 0.06,-9.59 -0.08,-19.44 0,-29 0.08,-9.56 -0.16,-18.42 0,-28 0.16,-9.58 -0.32,-19.37 0,-29 0.32,-9.63 -0.74,-18.22 0,-28 0.74,-9.78 1.53,-20.87 -10,-19 -11.53,1.87 -17.59,-0.79 -28,0 -10.41,0.79 -19.03,-0.31 -29,0 -9.97,0.31 -18.19,0 -28,0 30.35,2.33 62.83,0.33 94,1 0,15 0,30 0,45 z"
       id="path26" />
  </g>
  <g
     fill="None"
     fill-opacity="0"
     stroke="#bedce8"
     stroke-opacity="1"
     stroke-width="0.3"
     id="g27">
    <path
       d="m 877,722 c -0.55,1.95 -2.33,4.45 -2,7 -4,0 -8,0 -12,0 0,-35 0,-70 0,-105 3.67,0 7.33,0 11,0 4.11,14.8 6.36,30.71 11,45 -1.93,-15.71 -6.44,-30.75 -10,-46 -18.35,-4.64 -12.52,14.55 -13,27 -0.48,12.45 0.25,27.13 0,40 -0.25,12.87 0.19,27.01 0,40 9.2,0.64 13.59,1.27 15,-8 z"
       id="path27" />
  </g>
  <g
     fill="None"
     fill-opacity="0"
     stroke="#3178ac"
     stroke-opacity="1"
     stroke-width="0.3"
     id="g28">
    <path
       d="m 877,722 c 2.72,-17.83 10.05,-34.69 8,-53 -4.64,-14.29 -6.89,-30.2 -11,-45 -3.67,0 -7.33,0 -11,0 0,35 0,70 0,105 4,0 8,0 12,0 -0.33,-2.55 1.45,-5.05 2,-7 z"
       id="path28" />
  </g>
  <g
     fill="None"
     fill-opacity="0"
     stroke="#c5e4ef"
     stroke-opacity="1"
     stroke-width="0.3"
     id="g29">
    <path
       d="m 479,688 c 0,11.38 1.5,22.51 3,33 -0.57,-14.8 -2.24,-30.24 -1.99,-44.99 0.25,-14.76 2.99,-28.3 2.99,-43.01 -3.15,17.59 -4,36.07 -4,55 z"
       id="path29" />
  </g>
  <g
     fill="None"
     fill-opacity="0"
     stroke="#c5e1ec"
     stroke-opacity="1"
     stroke-width="0.3"
     id="g30">
    <path
       d="m 1093,674 c 0.5,0 1,0 1,0 -0.91,-12.22 -5.11,-24.41 -10,-35 3.7,11.55 5.66,23.37 9,35 z"
       id="path30" />
  </g>
  <g
     fill="None"
     fill-opacity="0"
     stroke="#bbdce9"
     stroke-opacity="1"
     stroke-width="0.3"
     id="g31">
    <path
       d="m 473,729 c -2.65,-15.69 -4,-31.56 -4,-48 0,-8.21 -0.77,-16.83 0,-25 -4.56,21.65 -2.11,52.88 4,73 z"
       id="path31" />
  </g>
  <g
     fill="None"
     fill-opacity="0"
     stroke="#296d9f"
     stroke-opacity="1"
     stroke-width="0.3"
     id="g32">
    <path
       d="m 517,711 c 1.67,13.82 3.66,26.73 7,40 1.09,4.35 2.18,8.6 3,13 1.54,4.73 4.17,10.04 6,15 2.88,7.8 7.99,17.57 11.08,24.92 3.08,7.36 12.76,16.35 6.17,21.33 -6.59,4.98 -11.65,11.39 -18.5,16.5 -6.85,5.12 -10.94,-9.3 -14.98,-15.52 -4.04,-6.22 -7.92,-16.06 -11.46,-23.54 -3.55,-7.47 -7.54,-16.52 -10,-25 -2.47,-8.47 -6.58,-17.57 -8.32,-26.68 -1.74,-9.12 -4.62,-20.44 -4.99,-30.01 -1.5,-10.49 -3,-21.62 -3,-33 -2.93,-4.86 0.92,-13.07 -2,-18 0,5.33 0,10.67 0,16 -2.87,-0.03 -7.39,-3.11 -8,-5 0,16.44 1.35,32.31 4,48 1.82,10.78 4.43,21.25 6,32 1.2,4.38 3.6,9.33 5,14 6.31,21.07 16.51,39.85 25,60 4.93,8.65 11.5,17.08 16,26 12.48,-9.22 23.45,-21.61 36,-31 20.41,-14.88 40.56,-33.69 64,-43 13.58,-7.33 27.54,-14.32 42,-20 18.87,-7.41 39.7,-14.73 60,-17 3.96,-1.01 8.59,-2.25 13,-3 10.64,-1.8 22.03,-3 33,-3 24.01,-2.33 50.16,-0.33 75,-1 0,-28.67 0,-57.33 0,-86 -1.88,39.89 -39.23,51.94 -73.93,54.07 -34.7,2.14 -69.23,14.07 -102,26 -32.77,11.93 -57.45,26.44 -92.85,35.15 -35.4,8.71 -60.84,-33.08 -62.22,-64.22 -0.08,0.99 0.09,2.01 0,3 z"
       id="path32" />
  </g>
  <g
     fill="None"
     fill-opacity="0"
     stroke="#537184"
     stroke-opacity="1"
     stroke-width="0.3"
     id="g33">
    <path
       d="m 1014,662 c 0.23,0.45 0.9,2.68 1,3 6.31,3.75 13.13,-0.08 21,2 7.87,2.08 9.41,3.49 20,3 10.59,-0.49 28.41,9.48 38,4 0,0 -0.5,0 -1,0 -12.99,0 -27.32,-6.8 -40.33,-6.67 -13.01,0.13 -26.92,-6.85 -38.67,-5.33 z"
       id="path33" />
  </g>
  <g
     fill="None"
     fill-opacity="0"
     stroke="#666665"
     stroke-opacity="1"
     stroke-width="0.3"
     id="g34">
    <path
       d="m 868,945 c -3.55,6.23 2.14,17.99 0,25 -2.14,7.01 2.24,19.26 0,26 -2.24,6.74 3.91,19.37 0,24 9.53,-2.48 20.63,-4.86 29.77,-8.23 9.14,-3.37 17.32,-6.92 26,-11 8.68,-4.07 17.11,-7.42 25,-13 7.89,-5.58 15.22,-10.56 23,-3.54 7.78,7.02 15.46,8.79 23,15 7.54,6.21 15.48,8.09 22.23,14.77 6.98,-7.04 16.41,-14.62 22.75,-22.25 6.35,-7.63 16.76,-14.47 22.5,-21.5 5.74,-7.04 20.71,-14.34 18.67,-23.17 -2.04,-8.83 -14.88,-18.19 -17.67,-27.33 -2.78,-9.15 -17.9,-17.25 -13.55,-27.05 4.35,-9.8 11.97,-17.28 16.38,-27.62 4.41,-10.35 10.33,-19.68 13.94,-31.06 3.62,-11.38 8.76,-20.71 10.2,-33.8 1.44,-13.09 16.66,-13.6 28.71,-15.29 12.05,-1.69 24.83,-5.56 37.07,-6.93 0,-31 0,-62 0,-93 -10.38,-0.59 -21.49,-4.83 -31.78,-5.22 -10.29,-0.4 -20.12,-6.43 -30.22,-5.78 -9.59,5.48 -27.41,-4.49 -38,-4 -10.59,0.49 -12.13,-0.92 -20,-3 -7.87,-2.08 -14.69,1.75 -21,-2 36.15,113.62 -32.69,245.78 -147,280 z"
       id="path34" />
  </g>
  <g
     fill="None"
     fill-opacity="0"
     stroke="#bedeec"
     stroke-opacity="1"
     stroke-width="0.3"
     id="g35">
    <path
       d="m 446,778 c -6.55,-4.49 -0.37,-20.53 -2,-29 -1.63,-8.47 0.85,-22.48 0,-32 -0.85,-9.52 0.64,-22.19 0,-32 10.37,-0.58 4.9,15.13 7,23 2.1,7.87 0.12,18.83 4,26 -1.95,-16.86 -4.01,-33.66 -4,-51 -12.87,-0.46 -7.74,18.7 -8,28 -0.26,9.3 -0.99,26.26 0,35 0.99,8.74 -4.28,28.48 3,32 z"
       id="path35" />
  </g>
  <g
     fill="None"
     fill-opacity="0"
     stroke="#2a6d9d"
     stroke-opacity="1"
     stroke-width="0.3"
     id="g36">
    <path
       d="m 446,778 c 6.88,0.63 13.06,3.73 20,4 -4.11,-15.97 -9.72,-31.26 -11,-48 -3.88,-7.17 -1.9,-18.13 -4,-26 -2.1,-7.87 3.37,-23.58 -7,-23 0.64,9.81 -0.85,22.48 0,32 0.85,9.52 -1.63,23.53 0,32 1.63,8.47 -4.55,24.51 2,29 z"
       id="path36" />
  </g>
  <g
     fill="None"
     fill-opacity="0"
     stroke="#b5d2de"
     stroke-opacity="1"
     stroke-width="0.3"
     id="g37">
    <path
       d="m 727,750 c 5.03,-0.56 8.93,-1.77 13,-3 -4.41,0.75 -9.04,1.99 -13,3 z"
       id="path37" />
  </g>
  <g
     fill="None"
     fill-opacity="0"
     stroke="#d6d6d5"
     stroke-opacity="1"
     stroke-width="0.3"
     id="g38">
    <path
       d="m 766,897 c -0.04,0 0,-1 0,-1 0,-46 0,-92 0,-138 11.33,0 22.67,0 34,0 4.63,0 11.6,-1 16,0 4.4,1 13.48,-2.46 17,0 4.47,3.13 -0.35,16.09 1,22 1.35,5.9 -0.61,16.12 0,23 0.61,6.88 -0.27,15.67 0,23 0.27,7.33 -0.12,15.44 0,23 0.12,7.56 -0.05,15.27 0,23 0.05,7.73 -0.01,16.21 0,24 0,0.5 0,1 0,1 2.09,-9.09 0.66,-20.06 1,-30 0.34,-9.94 -0.24,-20.01 0,-30 0.24,-9.99 -0.31,-19.97 0,-30 0.31,-10.03 -0.59,-19.9 0,-30 0.59,-10.1 1.97,-21.82 -10,-20 -11.97,1.82 -18.97,-0.95 -30,0 -11.03,0.95 -19.23,-0.71 -30,0 0.05,7.86 -0.06,16.19 0,24 0.06,7.81 -0.13,15.27 0,23 0.13,7.73 -0.26,16.41 0,24 0.26,7.59 -0.6,15.76 0,23 0.6,7.24 -1.27,17.44 0,24 1.27,6.56 -3.42,17.75 1,22 z"
       id="path38" />
  </g>
  <g
     fill="None"
     fill-opacity="0"
     stroke="#686868"
     stroke-opacity="1"
     stroke-width="0.3"
     id="g39">
    <path
       d="m 766,896 c 11.12,-1.03 22.83,0 34,0 0,-46 0,-92 0,-138 -11.33,0 -22.67,0 -34,0 0,46 0,92 0,138 z"
       id="path39" />
  </g>
  <g
     fill="None"
     fill-opacity="0"
     stroke="#484848"
     stroke-opacity="1"
     stroke-width="0.3"
     id="g40">
    <path
       d="m 800,896 c 11,0 22,0 33,0 -4.06,-45.64 3.05,-92.27 0,-138 -3.52,-2.46 -12.6,1 -17,0 -4.4,-1 -11.37,0 -16,0 0,46 0,92 0,138 z"
       id="path40" />
  </g>
  <g
     fill="None"
     fill-opacity="0"
     stroke="#676768"
     stroke-opacity="1"
     stroke-width="0.3"
     id="g41">
    <path
       d="m 833,896 c 0.5,0 1,0 1,0 -0.01,-7.79 0.05,-16.27 0,-24 -0.05,-7.73 0.12,-15.44 0,-23 -0.12,-7.56 0.27,-15.67 0,-23 -0.27,-7.33 0.61,-16.12 0,-23 -0.61,-6.88 1.35,-17.1 0,-23 -1.35,-5.91 3.47,-18.87 -1,-22 3.05,45.73 -4.06,92.36 0,138 z"
       id="path41" />
  </g>
  <g
     fill="None"
     fill-opacity="0"
     stroke="#bedce5"
     stroke-opacity="1"
     stroke-width="0.3"
     id="g42">
    <path
       d="m 484,775 c -1.4,-4.67 -3.8,-9.62 -5,-14 0.82,5.59 3.03,9.38 5,14 z"
       id="path42" />
  </g>
  <g
     fill="None"
     fill-opacity="0"
     stroke="#bedce4"
     stroke-opacity="1"
     stroke-width="0.3"
     id="g43">
    <path
       d="m 533,779 c -1.83,-4.96 -4.46,-10.27 -6,-15 1.11,5.95 3.3,10.05 6,15 z"
       id="path43" />
  </g>
  <g
     fill="None"
     fill-opacity="0"
     stroke="#bdd8e3"
     stroke-opacity="1"
     stroke-width="0.3"
     id="g44">
    <path
       d="m 625,787 c 14.27,-5.67 28.84,-12.82 42,-20 -14.46,5.68 -28.42,12.67 -42,20 z"
       id="path44" />
  </g>
  <g
     fill="None"
     fill-opacity="0"
     stroke="#454646"
     stroke-opacity="1"
     stroke-width="0.3"
     id="g45">
    <path
       d="m 555,858 c -3.31,3.31 -16.11,13.48 -16,18 1.15,4.71 6.4,10.8 9,15 3.62,1.91 7.43,-5.99 10.75,-8.25 3.32,-2.26 7.72,-7.08 11,-10 3.29,-2.92 8.28,-6.25 11,-10 2.72,-3.75 9.08,-6.05 11.33,-9.67 2.25,-3.61 11.02,-5.65 11.92,-9.08 -3.21,-5.3 -7.05,-19.71 -13.75,-14.75 -6.71,4.95 -11.77,8.98 -18,14 -6.24,5.01 -11.16,9.55 -17.25,14.75 z"
       id="path45" />
  </g>
  <g
     fill="None"
     fill-opacity="0"
     stroke="#bcd7e0"
     stroke-opacity="1"
     stroke-width="0.3"
     id="g46">
    <path
       d="m 509,835 c 3.57,8.47 7.99,15.89 13.25,23.75 5.25,7.86 14.14,-6.9 19.5,-11 5.37,-4.09 13.76,-12.67 19.25,-17.75 -12.55,9.39 -23.52,21.78 -36,31 -4.5,-8.92 -11.07,-17.35 -16,-26 z"
       id="path46" />
  </g>
  <g
     fill="None"
     fill-opacity="0"
     stroke="#666666"
     stroke-opacity="1"
     stroke-width="0.3"
     id="g47">
    <path
       d="m 548,891 c 5.77,10.31 -7.12,20.08 -12.23,29.77 -5.11,9.69 -13.6,19.36 -18.77,29.23 21.62,20.79 43.16,42.33 64,64 7.84,-5.36 15.59,-8.51 23.25,-14.75 7.67,-6.24 15.67,-7.51 23.5,-14.5 7.84,-6.98 14.94,-3.3 23.02,2.48 8.08,5.78 15.89,8.98 24.54,13.46 8.64,4.49 17.9,7.55 27.01,10.99 9.11,3.44 19.14,6.31 28.68,8.32 -3.53,-3.74 -0.26,-12.93 -1,-18 -0.74,-5.07 -0.07,-13.75 0,-19 0.07,-5.25 -0.93,-14.29 0,-19 0.93,-4.71 -2.71,-16.56 1,-19 -50.65,-16.45 -98.75,-54.41 -127,-101 -0.9,3.43 -9.67,5.47 -11.92,9.08 -2.25,3.62 -8.61,5.92 -11.33,9.67 -2.72,3.75 -7.71,7.08 -11,10 -3.28,2.92 -7.68,7.74 -11,10 -3.32,2.26 -7.13,10.16 -10.75,8.25 z"
       id="path47" />
  </g>
  <g
     fill="None"
     fill-opacity="0"
     stroke="#979998"
     stroke-opacity="1"
     stroke-width="0.3"
     id="g48">
    <path
       d="m 539,876 c -0.11,-4.52 12.69,-14.69 16,-18 -4.03,3.44 -17.1,13.52 -16,18 z"
       id="path48" />
  </g>
  <g
     fill="None"
     fill-opacity="0"
     stroke="#9e9e9e"
     stroke-opacity="1"
     stroke-width="0.3"
     id="g49">
    <path
       d="m 766,897 c 21.43,1.94 46.57,1.95 68,0 0,0 0,-0.5 0,-1 0,0 -0.5,0 -1,0 -11,0 -22,0 -33,0 -11.17,0 -22.88,-1.03 -34,0 0,0 -0.04,1 0,1 z"
       id="path49" />
  </g>
  <g
     fill="None"
     fill-opacity="0"
     stroke="#b6d8e7"
     stroke-opacity="1"
     stroke-width="0.3"
     id="g50">
    <path
       d="m 773,1224 c -0.04,0 0,-1 0,-1 -13.31,-4.35 -5.52,-25.52 -7,-38 -1.48,-12.48 0.68,-32.07 0,-46 -0.68,-13.93 0.3,-30.37 0,-45 -0.3,-14.63 0.14,-31.06 0,-46 -0.14,-14.94 0.06,-29.9 0,-45 -0.06,-15.1 0.03,-30.79 0,-46 -0.03,-15.21 0.03,-30.76 0,-46 11.33,0 22.67,0 34,0 11.33,0 22.67,0 34,0 0.67,63.83 -1.33,128.99 1,192 0,-64.34 0,-128.67 0,-193 -12.24,0.56 -28.13,-0.74 -40,0 -11.87,0.74 -30.58,-5.11 -30,9 0.58,14.11 -0.27,25.5 0,39 0.27,13.5 -0.13,25.79 0,39 0.13,13.21 -0.08,25.93 0,39 0.08,13.07 -0.09,27.12 0,40 0.09,12.88 -0.16,26.54 0,39 0.16,12.46 -0.34,27.31 0,39 0.34,11.69 -0.74,28.96 0,39 0.74,10.04 -4.52,29.62 8,31 z"
       id="path50" />
  </g>
  <g
     fill="None"
     fill-opacity="0"
     stroke="#368dc4"
     stroke-opacity="1"
     stroke-width="0.3"
     id="g51">
    <path
       d="m 773,1223 c 8.83,-0.82 18.13,0 27,0 0,-104 0,-208 0,-312 -11.33,0 -22.67,0 -34,0 0.03,15.24 -0.03,30.79 0,46 0.03,15.21 -0.06,30.9 0,46 0.06,15.1 -0.14,30.06 0,45 0.14,14.94 -0.3,31.37 0,46 0.3,14.63 -0.68,31.07 0,45 0.68,13.93 -1.48,33.52 0,46 1.48,12.48 -6.31,33.65 7,38 z"
       id="path51" />
  </g>
  <g
     fill="None"
     fill-opacity="0"
     stroke="#286d9e"
     stroke-opacity="1"
     stroke-width="0.3"
     id="g52">
    <path
       d="m 800,1223 c 9.45,0 28.57,3.83 35,-4 6.58,-9.4 19.42,-18.71 14.78,-30.78 -4.64,-12.07 -7.16,-26.63 -9.85,-40.15 -2.7,-13.51 -4.93,-30.4 -4.93,-45.07 -2.33,-63.01 -0.33,-128.17 -1,-192 -11.33,0 -22.67,0 -34,0 0,104 0,208 0,312 m 18,-43 c 12.6,3.38 6.94,25.33 -6.22,21.22 -13.16,-4.11 -7.17,-24.81 6.22,-21.22 z"
       id="path52" />
  </g>
  <g
     fill="None"
     fill-opacity="0"
     stroke="#454646"
     stroke-opacity="1"
     stroke-width="0.3"
     id="g53">
    <path
       d="m 731,1020 c 12.05,-0.68 12.12,10.85 14.01,19.99 1.88,9.15 4.17,18.58 4.99,28.01 2.41,-11.23 0.23,-22.76 1,-35 0.77,-12.24 -1.1,-23.26 0,-36 1.1,-12.74 -2.15,-22.26 0,-36 2.15,-13.74 -9.47,-12.58 -20,-16 -3.71,2.44 -0.07,14.29 -1,19 -0.93,4.71 0.07,13.75 0,19 -0.07,5.25 -0.74,13.93 0,19 0.74,5.07 -2.53,14.26 1,18 z"
       id="path53" />
  </g>
  <g
     fill="None"
     fill-opacity="0"
     stroke="#444545"
     stroke-opacity="1"
     stroke-width="0.3"
     id="g54">
    <path
       d="m 849,950 c -2.87,36.94 3.38,75.97 1,112 2.7,-8.94 3.09,-15.52 5.02,-24.98 1.94,-9.45 2.6,-14.49 12.98,-17.02 3.91,-4.63 -2.24,-17.26 0,-24 2.24,-6.74 -2.14,-18.99 0,-26 2.14,-7.01 -3.55,-18.77 0,-25 -4.28,1.28 -16.09,1.66 -19,5 z"
       id="path54" />
  </g>
  <g
     fill="None"
     fill-opacity="0"
     stroke="#8e8f8f"
     stroke-opacity="1"
     stroke-width="0.3"
     id="g55">
    <path
       d="m 850,1062 c 2.38,-36.03 -3.87,-75.06 -1,-112 -2.33,37.68 -0.33,77.5 -1,116 1.53,-0.6 1.6,-2.67 2,-4 z"
       id="path55" />
  </g>
  <g
     fill="None"
     fill-opacity="0"
     stroke="#f1f8f9"
     stroke-opacity="1"
     stroke-width="0.3"
     id="g56">
    <path
       d="m 818,1180 c -13.39,-3.59 -19.38,17.11 -6.22,21.22 13.16,4.11 18.82,-17.84 6.22,-21.22 z"
       id="path56" />
  </g>
  <g
     fill="None"
     fill-opacity="0"
     stroke="#8fb6cd"
     stroke-opacity="1"
     stroke-width="0.3"
     id="g57">
    <path
       d="m 800,1223 c -8.87,0 -18.17,-0.82 -27,0 0,0 -0.04,1 0,1 10.2,0.92 24.06,0.12 34,0 9.94,-0.12 22.05,3.5 28,-5 -6.43,7.83 -25.55,4 -35,4 z"
       id="path57" />
  </g>
  <g
     fill="#fefefe"
     fill-opacity="1"
     stroke="None"
     id="g58">
    <path
       d="M 0,1600 H 1600 V 0 H 0 V 1600 M 846,377 c 3.69,4.87 3.38,15.99 4,22 1.12,10.92 3.97,22.11 6,33 2.76,8.74 17.35,10 25,13 18.44,4.93 35.28,12.96 53,20 8.12,3.23 14.11,5.45 21.25,11.75 7.14,6.31 14.38,1.02 20.98,-3.52 6.6,-4.54 13.15,-10.5 19.85,-13.15 6.7,-2.64 14.02,-13.83 20.92,-13.08 5,0.55 8.87,10.05 13.75,12.25 4.87,2.2 8.42,9.64 13,13 4.59,3.35 8.53,9.15 13,13 4.47,3.85 8.55,8.97 13,13 4.45,4.02 8.47,9.21 13.25,12.75 -3.94,10.51 -13.54,20.5 -18.77,30.23 -5.23,9.73 -20.22,20.07 -12.93,30.47 7.3,10.4 12.24,20.84 18.02,31.98 5.78,11.14 11.52,23.09 14.68,35.32 4.89,10.59 9.09,22.78 10,35 10.1,-0.65 19.93,5.38 30.22,5.78 10.29,0.39 21.4,4.63 31.78,5.22 0,31 0,62 0,93 -12.24,1.37 -25.02,5.24 -37.07,6.93 -12.05,1.69 -27.27,2.2 -28.71,15.29 -1.44,13.09 -6.58,22.42 -10.2,33.8 -3.61,11.38 -9.53,20.71 -13.94,31.06 -4.41,10.34 -12.03,17.82 -16.38,27.62 -4.35,9.8 10.77,17.9 13.55,27.05 2.79,9.14 15.63,18.5 17.67,27.33 2.04,8.83 -12.93,16.13 -18.67,23.17 -5.74,7.03 -16.15,13.87 -22.5,21.5 -6.34,7.63 -15.77,15.21 -22.75,22.25 -6.75,-6.68 -14.69,-8.56 -22.23,-14.77 -7.54,-6.21 -15.22,-7.98 -23,-15 -7.78,-7.02 -15.11,-2.04 -23,3.54 -7.89,5.58 -16.32,8.93 -25,13 -8.68,4.08 -16.86,7.63 -26,11 -9.14,3.37 -20.24,5.75 -29.77,8.23 -10.38,2.53 -11.04,7.57 -12.98,17.02 -1.93,9.46 -2.32,16.04 -5.02,24.98 -0.4,1.33 -0.47,3.4 -2,4 0.67,-38.5 -1.33,-78.32 1,-116 2.91,-3.34 14.72,-3.72 19,-5 114.31,-34.22 183.15,-166.38 147,-280 -0.1,-0.32 -0.77,-2.55 -1,-3 -0.14,-0.27 -0.76,-0.73 -1,-1 -7.9,-9.14 -8.77,-25.76 -15.92,-36.08 -7.16,-10.32 -12.73,-21.46 -20.83,-31.17 -8.1,-9.7 -15.01,-18.9 -24.95,-27.05 -9.93,-8.15 -18.97,-15.13 -29.38,-22.62 C 911.5,536.59 898.99,532.54 887.93,526.07 876.86,519.6 859.83,519.1 850,512 c -0.5,-0.02 -1.5,-0.03 -2,0 -10.48,0.73 -19.64,-3.63 -30.22,-3.78 C 807.2,508.07 794.76,508 784,508 c -0.5,0 -1,0 -1,0 -3.11,2.31 -11.8,1.92 -16,2 -3.31,0.07 -5.98,0.47 -9,1 -7.52,2.19 -16.25,4.82 -24.07,6.93 -7.83,2.1 -16.3,5.3 -23.62,8.38 -7.33,3.07 -14.14,6.48 -21,10 -6.87,3.51 -12.79,9.31 -19.39,12.61 -6.6,3.29 -10.94,10.84 -17.17,13.83 -6.22,3 -10.31,13.94 -16.75,15.25 -7.17,1.46 -17.4,-5.52 -25,-6 -7.6,-0.48 -16.05,-5.79 -23.67,-7.33 -7.62,-1.53 -16.32,-5.9 -23.55,-8.45 -7.24,-2.54 -15.75,-4.88 -22.01,-8.99 -6.26,-4.11 -9.73,-11.97 -13.77,-18.23 -3.41,-4.2 -14.16,-14.17 -10.74,-19.74 3.41,-5.58 12.2,-11.17 16.49,-16.51 4.29,-5.34 11.99,-11.99 16.25,-14.75 3.74,-3.74 8.02,-7.6 12,-11 3.82,-3.82 6.53,-7.58 10.75,-11.25 4.22,-3.67 6.51,-9.1 11.25,-6.75 8.41,4.17 15.85,10.6 24,15 8.51,4.59 13.13,7.65 21.25,13.75 8.11,6.1 15.77,-2.39 23.75,-5.75 23.31,-9.83 44.95,-22.45 70,-28 3.38,-1.14 14.94,-3.37 17.25,-6.75 2.3,-3.39 4.56,-14.47 5.75,-18.25 0.54,-3.04 0.6,-5.93 1,-9 1.15,-8.85 2.06,-14.89 3,-24 0.94,-9.11 6.94,-12.58 16,-11 9.06,1.58 18.48,-1.23 27,0 8.52,1.23 19.33,-1.7 27,0 7.67,1.7 21.36,-4.11 26,2 M 596,585 c 6,1.46 11.84,2.96 18,4 13.53,2.29 29.51,5.27 42,10 11.23,4.25 25.9,6.34 38,7 4.76,0.26 13.39,-0.67 17,2 0.5,0 1,0 1,0 7.03,0 15.08,-1.12 22,0 6.92,1.12 13.48,2.58 21,2 7.52,-0.58 15.47,0.12 23,0 7.53,-0.12 15.57,-0.27 23,0 7.43,0.27 15.82,-0.84 23,0 7.18,0.84 16.39,-1.96 23,0 6.61,1.96 2.02,13.85 3,20 0.98,6.15 -0.34,16.15 0,23 0.34,6.85 0.06,15.98 0,23 -0.06,7.02 0.5,16.26 0,23 -0.5,6.74 1.29,17.14 0,23 -1.28,5.86 3.39,18.92 -1,22 -4.24,2.97 -13.62,-1.33 -19,0 -5.38,1.33 -13.11,-0.58 -19,0 -5.89,0.58 -12.9,-0.22 -19,0 -6.1,0.22 -12.84,0 -19,0 -10.97,0 -22.36,1.2 -33,3 -4.07,1.23 -7.97,2.44 -13,3 -20.3,2.27 -41.13,9.59 -60,17 -13.16,7.18 -27.73,14.33 -42,20 -23.44,9.31 -43.59,28.12 -64,43 -5.49,5.08 -13.88,13.66 -19.25,17.75 -5.36,4.1 -14.25,18.86 -19.5,11 -5.26,-7.86 -9.68,-15.28 -13.25,-23.75 -8.49,-20.15 -18.69,-38.93 -25,-60 -1.97,-4.62 -4.18,-8.41 -5,-14 -1.57,-10.75 -4.18,-21.22 -6,-32 -6.11,-20.12 -8.56,-51.35 -4,-73 0.36,-3.82 1,-7.84 1,-12 0,-11.33 2.65,-21.35 4.93,-32.07 2.27,-10.73 5.03,-19.2 8.05,-29.95 3.01,-10.76 7.85,-14.34 10.79,-26.21 2.94,-11.87 12.23,-8.16 21.31,-2.85 9.07,5.32 16.74,7.13 25.95,11.06 9.2,3.92 17.78,7.78 27.19,10.8 9.42,3.01 19.07,6.84 27.78,10.22 m 238,12 c -2.64,3.78 -16.95,0.42 -22,1 -5.05,0.58 -17.91,0.76 -23,0 -5.09,-0.76 -20.27,2.9 -23,-1 -1.56,-2.23 -0.44,-13.03 0,-16 0.44,-2.97 4.5,-7.83 8.23,-8.77 3.73,-0.94 12.05,-0.15 16.77,-0.23 4.72,-0.08 11.93,-0.4 17,0 5.07,0.4 11.97,-1.15 17,0 3.06,0.7 8.27,5.4 8.32,8.68 0.05,3.28 2.8,13.29 0.68,16.32 m 51,72 c 2.05,18.31 -5.28,35.17 -8,53 -1.41,9.27 -5.8,8.64 -15,8 0.19,-12.99 -0.25,-27.13 0,-40 0.25,-12.87 -0.48,-27.55 0,-40 0.48,-12.45 -5.35,-31.64 13,-27 3.56,15.25 8.07,30.29 10,46 m -430,65 c 1.28,16.74 6.89,32.03 11,48 -6.94,-0.27 -13.12,-3.37 -20,-4 -7.28,-3.52 -2.01,-23.26 -3,-32 -0.99,-8.74 -0.26,-25.7 0,-35 0.26,-9.3 -4.87,-28.46 8,-28 -0.01,17.34 2.05,34.14 4,51 m 379,163 c -21.43,1.95 -46.57,1.94 -68,0 -4.42,-4.25 0.27,-15.44 -1,-22 -1.27,-6.56 0.6,-16.76 0,-24 -0.6,-7.24 0.26,-15.41 0,-23 -0.26,-7.59 0.13,-16.27 0,-24 -0.13,-7.73 0.06,-15.19 0,-23 -0.06,-7.81 0.05,-16.14 0,-24 10.77,-0.71 18.97,0.95 30,0 11.03,-0.95 18.03,1.82 30,0 11.97,-1.82 10.59,9.9 10,20 -0.59,10.1 0.31,19.97 0,30 -0.31,10.03 0.24,20.01 0,30 -0.24,9.99 0.34,20.06 0,30 -0.34,9.94 1.09,20.91 -1,30 M 604,844 c 28.25,46.59 76.35,84.55 127,101 10.53,3.42 22.15,2.26 20,16 -2.15,13.74 1.1,23.26 0,36 -1.1,12.74 0.77,23.76 0,36 -0.77,12.24 1.41,23.77 -1,35 -0.82,-9.43 -3.11,-18.86 -4.99,-28.01 -1.89,-9.14 -1.96,-20.67 -14.01,-19.99 -9.54,-2.01 -19.57,-4.88 -28.68,-8.32 -9.11,-3.44 -18.37,-6.5 -27.01,-10.99 -8.65,-4.48 -16.46,-7.68 -24.54,-13.46 -8.08,-5.78 -15.18,-9.46 -23.02,-2.48 -7.83,6.99 -15.83,8.26 -23.5,14.5 -7.66,6.24 -15.41,9.39 -23.25,14.75 -20.84,-21.67 -42.38,-43.21 -64,-64 5.17,-9.87 13.66,-19.54 18.77,-29.23 5.11,-9.69 18,-19.46 12.23,-29.77 -2.6,-4.2 -7.85,-10.29 -9,-15 -1.1,-4.48 11.97,-14.56 16,-18 6.09,-5.2 11.01,-9.74 17.25,-14.75 6.23,-5.02 11.29,-9.05 18,-14 6.7,-4.96 10.54,9.45 13.75,14.75 m 231,259 c 0,14.67 2.23,31.56 4.93,45.07 2.69,13.52 5.21,28.08 9.85,40.15 4.64,12.07 -8.2,21.38 -14.78,30.78 -5.95,8.5 -18.06,4.88 -28,5 -9.94,0.12 -23.8,0.92 -34,0 -12.52,-1.38 -7.26,-20.96 -8,-31 -0.74,-10.04 0.34,-27.31 0,-39 -0.34,-11.69 0.16,-26.54 0,-39 -0.16,-12.46 0.09,-26.12 0,-39 -0.09,-12.88 0.08,-26.93 0,-40 -0.08,-13.07 0.13,-25.79 0,-39 -0.13,-13.21 0.27,-25.5 0,-39 -0.27,-13.5 0.58,-24.89 0,-39 -0.58,-14.11 18.13,-8.26 30,-9 11.87,-0.74 27.76,0.56 40,0 0,64.33 0,128.66 0,193 z"
       id="path58" />
  </g>
  <g
     fill="#d9f2f9"
     fill-opacity="1"
     stroke="None"
     id="g59">
    <path
       d="m 747,410 c 1.12,-4.39 2.18,-11.7 3.93,-16.07 1.74,-4.38 0.1,-13.66 3.07,-16.93 3.81,-4.2 15.85,-0.05 22,-1 6.15,-0.95 17.4,-0.02 24,0 6.6,0.02 16.77,-1.13 23,0 6.23,1.13 18.43,-3.31 23,1 -4.64,-6.11 -18.33,-0.3 -26,-2 -7.67,-1.7 -18.48,1.23 -27,0 -8.52,-1.23 -17.94,1.58 -27,0 -9.06,-1.58 -15.06,1.89 -16,11 -0.94,9.11 -1.85,15.15 -3,24 z"
       id="path59" />
  </g>
  <g
     fill="#93c0d7"
     fill-opacity="1"
     stroke="None"
     id="g60">
    <path
       d="m 754,377 c 30.33,0 60.67,0 91,0 2.05,7.13 2.36,15.39 5,22 -0.62,-6.01 -0.31,-17.13 -4,-22 -4.57,-4.31 -16.77,0.13 -23,-1 -6.23,-1.13 -16.4,0.02 -23,0 -6.6,-0.02 -17.85,-0.95 -24,0 -6.15,0.95 -18.19,-3.2 -22,1 z"
       id="path60" />
  </g>
  <g
     fill="#358cc4"
     fill-opacity="1"
     stroke="None"
     id="g61">
    <path
       d="m 747,410 c -0.4,3.07 -0.46,5.96 -1,9 -0.84,4.67 -2.01,15.57 -4.78,19.22 -2.76,3.66 -13.94,4.83 -18.22,5.78 -25.05,5.55 -46.69,18.17 -70,28 -7.53,4.11 -14.39,13.47 -22.75,7.75 -8.36,-5.72 -14.34,-10.1 -22.25,-15.75 -8.15,-4.4 -15.59,-10.83 -24,-15 -5.88,-1.61 -17.11,13.83 -22,18 -3.98,3.4 -8.26,7.26 -12,11 -10.92,10.92 -21.4,22.86 -33,33 1.37,3.99 4.48,7.76 7,11 6.53,4.71 15.84,6.08 23.22,9.78 7.39,3.69 16.35,5.36 24.01,8.99 7.66,3.63 17.8,5.55 25.79,8.21 8,2.65 17.01,6.85 25.2,7.8 8.19,0.94 19.24,8.31 26.78,7.22 28.77,-28.77 70.23,-46.18 109,-53 3.02,-0.53 5.69,-0.93 9,-1 5.03,-0.82 10.1,-2 16,-2 0,0 0.5,0 1,0 5.03,-3.72 15.49,-0.08 22,-1 6.51,-0.92 15.39,0.76 22,1 6.61,0.24 14.11,2.23 20,4 0.5,-0.03 1.5,-0.02 2,0 18.88,0.77 39.78,13.62 56.7,21.31 16.91,7.68 31.39,20.06 45.55,32.44 14.16,12.39 25.9,26.82 35.67,42.33 9.77,15.52 21.47,34.66 25.08,52.92 0.24,0.27 0.86,0.73 1,1 11.75,-1.52 25.66,5.46 38.67,5.33 13.01,-0.13 27.34,6.67 40.33,6.67 -3.34,-11.63 -5.3,-23.45 -9,-35 -3.16,-12.23 -8.9,-24.18 -14.68,-35.32 -5.78,-11.14 -10.72,-21.58 -18.02,-31.98 -7.29,-10.4 7.7,-20.74 12.93,-30.47 5.23,-9.73 14.83,-19.72 18.77,-30.23 -4.78,-3.54 -8.8,-8.73 -13.25,-12.75 -4.45,-4.03 -8.53,-9.15 -13,-13 -4.47,-3.85 -8.41,-9.65 -13,-13 -4.58,-3.36 -8.13,-10.8 -13,-13 -4.88,-2.2 -8.75,-11.7 -13.75,-12.25 -3.89,0.02 -8.56,7.77 -13.08,8.92 -4.51,1.16 -9.07,7.73 -13.67,9.33 -4.59,1.61 -9.43,7.65 -14,9 -4.56,1.36 -9.08,10.2 -13.93,8.41 -4.84,-1.79 -8.95,-7.14 -14.01,-8.96 -5.07,-1.83 -9.85,-6.27 -14.31,-8.7 -17.72,-7.04 -34.56,-15.07 -53,-20 -9.29,-2.48 -23.03,-2.44 -25,-13 -2.03,-10.89 -4.88,-22.08 -6,-33 -2.64,-6.61 -2.95,-14.87 -5,-22 -30.33,0 -60.67,0 -91,0 -2.97,3.27 -1.33,12.55 -3.07,16.93 -1.75,4.37 -2.81,11.68 -3.93,16.07 z"
       id="path61" />
  </g>
  <g
     fill="#badeec"
     fill-opacity="1"
     stroke="None"
     id="g62">
    <path
       d="m 723,444 c 4.28,-0.95 15.46,-2.12 18.22,-5.78 2.77,-3.65 3.94,-14.55 4.78,-19.22 -1.19,3.78 -3.45,14.86 -5.75,18.25 -2.31,3.38 -13.87,5.61 -17.25,6.75 z"
       id="path62" />
  </g>
  <g
     fill="#b8dceb"
     fill-opacity="1"
     stroke="None"
     id="g63">
    <path
       d="m 881,445 c -7.65,-3 -22.24,-4.26 -25,-13 1.97,10.56 15.71,10.52 25,13 z"
       id="path63" />
  </g>
  <g
     fill="#75a6c2"
     fill-opacity="1"
     stroke="None"
     id="g64">
    <path
       d="m 562,467 c 4.89,-4.17 16.12,-19.61 22,-18 -4.74,-2.35 -7.03,3.08 -11.25,6.75 -4.22,3.67 -6.93,7.43 -10.75,11.25 z"
       id="path64" />
  </g>
  <g
     fill="#baddeb"
     fill-opacity="1"
     stroke="None"
     id="g65">
    <path
       d="m 934,465 c 4.46,2.43 9.24,6.87 14.31,8.7 5.06,1.82 9.17,7.17 14.01,8.96 4.85,1.79 9.37,-7.05 13.93,-8.41 4.57,-1.35 9.41,-7.39 14,-9 4.6,-1.6 9.16,-8.17 13.67,-9.33 4.52,-1.15 9.19,-8.9 13.08,-8.92 -6.9,-0.75 -14.22,10.44 -20.92,13.08 -6.7,2.65 -13.25,8.61 -19.85,13.15 -6.6,4.54 -13.84,9.83 -20.98,3.52 -7.14,-6.3 -13.13,-8.52 -21.25,-11.75 z"
       id="path65" />
  </g>
  <g
     fill="#c1e2ee"
     fill-opacity="1"
     stroke="None"
     id="g66">
    <path
       d="m 653,472 c -7.98,3.36 -15.64,11.85 -23.75,5.75 -8.12,-6.1 -12.74,-9.16 -21.25,-13.75 7.91,5.65 13.89,10.03 22.25,15.75 8.36,5.72 15.22,-3.64 22.75,-7.75 z"
       id="path66" />
  </g>
  <g
     fill="#bbddeb"
     fill-opacity="1"
     stroke="None"
     id="g67">
    <path
       d="m 528,529 c -1.49,-2.32 -2.67,-4.81 -4,-7 -2.52,-3.24 -5.63,-7.01 -7,-11 11.6,-10.14 22.08,-22.08 33,-33 -4.26,2.76 -11.96,9.41 -16.25,14.75 -4.29,5.34 -13.08,10.93 -16.49,16.51 -3.42,5.57 7.33,15.54 10.74,19.74 z"
       id="path67" />
  </g>
  <g
     fill="#bfe4f1"
     fill-opacity="1"
     stroke="None"
     id="g68">
    <path
       d="m 784,508 c 10.76,0 23.2,0.07 33.78,0.22 10.58,0.15 19.74,4.51 30.22,3.78 -5.89,-1.77 -13.39,-3.76 -20,-4 -6.61,-0.24 -15.49,-1.92 -22,-1 -6.51,0.92 -16.97,-2.72 -22,1 z"
       id="path68" />
  </g>
  <g
     fill="#c0e1ed"
     fill-opacity="1"
     stroke="None"
     id="g69">
    <path
       d="m 767,510 c 4.2,-0.08 12.89,0.31 16,-2 -5.9,0 -10.97,1.18 -16,2 z"
       id="path69" />
  </g>
  <g
     fill="#bbdeea"
     fill-opacity="1"
     stroke="None"
     id="g70">
    <path
       d="m 649,564 c -2.93,2.93 -9.27,12.97 -13,14 6.44,-1.31 10.53,-12.25 16.75,-15.25 6.23,-2.99 10.57,-10.54 17.17,-13.83 6.6,-3.3 12.52,-9.1 19.39,-12.61 6.86,-3.52 13.67,-6.93 21,-10 7.32,-3.08 15.79,-6.28 23.62,-8.38 7.82,-2.11 16.55,-4.74 24.07,-6.93 -38.77,6.82 -80.23,24.23 -109,53 z"
       id="path70" />
  </g>
  <g
     fill="#bee2ed"
     fill-opacity="1"
     stroke="None"
     id="g71">
    <path
       d="m 1013,661 c -3.61,-18.26 -15.31,-37.4 -25.08,-52.92 -9.77,-15.51 -21.51,-29.94 -35.67,-42.33 C 938.09,553.37 923.61,540.99 906.7,533.31 889.78,525.62 868.88,512.77 850,512 c 9.83,7.1 26.86,7.6 37.93,14.07 11.06,6.47 23.57,10.52 33.99,18.01 10.41,7.49 19.45,14.47 29.38,22.62 9.94,8.15 16.85,17.35 24.95,27.05 8.1,9.71 13.67,20.85 20.83,31.17 7.15,10.32 8.02,26.94 15.92,36.08 z"
       id="path71" />
  </g>
  <g
     fill="#276797"
     fill-opacity="1"
     stroke="None"
     id="g72">
    <path
       d="m 528,529 c 4.04,6.26 7.51,14.12 13.77,18.23 6.26,4.11 14.77,6.45 22.01,8.99 7.23,2.55 15.93,6.92 23.55,8.45 7.62,1.54 16.07,6.85 23.67,7.33 7.6,0.48 17.83,7.46 25,6 3.73,-1.03 10.07,-11.07 13,-14 -7.54,1.09 -18.59,-6.28 -26.78,-7.22 -8.19,-0.95 -17.2,-5.15 -25.2,-7.8 -7.99,-2.66 -18.13,-4.58 -25.79,-8.21 -7.66,-3.63 -16.62,-5.3 -24.01,-8.99 -7.38,-3.7 -16.69,-5.07 -23.22,-9.78 1.33,2.19 2.51,4.68 4,7 z"
       id="path72" />
  </g>
  <g
     fill="#bfe1ed"
     fill-opacity="1"
     stroke="None"
     id="g73">
    <path
       d="m 470,644 c 3.23,-33.39 14.97,-66.53 29,-97 31.64,14.52 63.72,28 97,38 -8.71,-3.38 -18.36,-7.21 -27.78,-10.22 -9.41,-3.02 -17.99,-6.88 -27.19,-10.8 -9.21,-3.93 -16.88,-5.74 -25.95,-11.06 -9.08,-5.31 -18.37,-9.02 -21.31,2.85 -2.94,11.87 -7.78,15.45 -10.79,26.21 -3.02,10.75 -5.78,19.22 -8.05,29.95 C 472.65,622.65 470,632.67 470,644 Z"
       id="path73" />
  </g>
  <g
     fill="#348cc3"
     fill-opacity="1"
     stroke="None"
     id="g74">
    <path
       d="m 470,644 c 0,4.16 -0.64,8.18 -1,12 -0.77,8.17 0,16.79 0,25 0.61,1.89 5.13,4.97 8,5 0,-5.33 0,-10.67 0,-16 2.92,4.93 -0.93,13.14 2,18 0,-18.93 0.85,-37.41 4,-55 0,-0.98 -0.08,-2.02 0,-3 0.76,-9.06 3.3,-18.73 5.78,-27.22 2.48,-8.5 5.04,-17.87 8.2,-25.8 3.15,-7.94 5.63,-18.82 14.25,-13.21 8.62,5.62 15.14,5.71 23.77,10.23 -15.1,42.81 -26.03,90.76 -18,137 0.09,-0.99 -0.08,-2.01 0,-3 1.38,31.14 26.82,72.93 62.22,64.22 35.4,-8.71 60.08,-23.22 92.85,-35.15 32.77,-11.93 67.3,-23.86 102,-26 34.7,-2.13 72.05,-14.18 73.93,-54.07 0,-15 0,-30 0,-45 -31.17,-0.67 -63.65,1.33 -94,-1 -6.57,0 -14.82,0.23 -21,-1 -6.18,-1.23 -16.26,1.51 -21,-2 0,0 -0.5,0 -1,0 -6.01,0 -11.73,-1.14 -17,-2 -12.1,-0.66 -26.77,-2.75 -38,-7 -14.35,-2.72 -28.46,-6.06 -42,-10 -6.16,-1.04 -12,-2.54 -18,-4 -33.28,-10 -65.36,-23.48 -97,-38 -14.03,30.47 -25.77,63.61 -29,97 z"
       id="path74" />
  </g>
  <g
     fill="#c7e6ef"
     fill-opacity="1"
     stroke="None"
     id="g75">
    <path
       d="m 483,630 c 3.31,-7.69 5.04,-17.3 6.93,-26.07 1.88,-8.78 5.79,-17.31 8.05,-25.95 2.25,-8.65 8.08,-17.86 15.71,-11.67 7.64,6.18 20.23,3.72 18.38,13.76 -1.85,10.04 -6.76,15.58 -8.85,25.15 -2.09,9.58 -4.43,17.25 -6,27 -1.57,9.75 -2.68,20.06 -4,30 -1.31,9.94 0.18,23.4 0.56,33 0.38,9.6 1.68,19.15 3.2,28.8 1.51,9.66 3.59,18.56 7.02,26.98 -3.34,-13.27 -5.33,-26.18 -7,-40 -8.03,-46.24 2.9,-94.19 18,-137 -8.63,-4.52 -15.15,-4.61 -23.77,-10.23 -8.62,-5.61 -11.1,5.27 -14.25,13.21 -3.16,7.93 -5.72,17.3 -8.2,25.8 -2.48,8.49 -5.02,18.16 -5.78,27.22 z"
       id="path75" />
  </g>
  <g
     fill="#fbfdfd"
     fill-opacity="1"
     stroke="None"
     id="g76">
    <path
       d="m 483,630 c -0.08,0.98 0,2.02 0,3 0,14.71 -2.74,28.25 -2.99,43.01 -0.25,14.75 1.42,30.19 1.99,44.99 0.37,9.57 3.25,20.89 4.99,30.01 1.74,9.11 5.85,18.21 8.32,26.68 2.46,8.48 6.45,17.53 10,25 3.54,7.48 7.42,17.32 11.46,23.54 4.04,6.22 8.13,20.64 14.98,15.52 6.85,-5.11 11.91,-11.52 18.5,-16.5 6.59,-4.98 -3.09,-13.97 -6.17,-21.33 -3.09,-7.35 -8.2,-17.12 -11.08,-24.92 -2.7,-4.95 -4.89,-9.05 -6,-15 -0.82,-4.4 -1.91,-8.65 -3,-13 -3.43,-8.42 -5.51,-17.32 -7.02,-26.98 -1.52,-9.65 -2.82,-19.2 -3.2,-28.8 -0.38,-9.6 -1.87,-23.06 -0.56,-33 1.32,-9.94 2.43,-20.25 4,-30 1.57,-9.75 3.91,-17.42 6,-27 2.09,-9.57 7,-15.11 8.85,-25.15 1.85,-10.04 -10.74,-7.58 -18.38,-13.76 -7.63,-6.19 -13.46,3.02 -15.71,11.67 -2.26,8.64 -6.17,17.17 -8.05,25.95 -1.89,8.77 -3.62,18.38 -6.93,26.07 z"
       id="path76" />
  </g>
  <g
     fill="#696969"
     fill-opacity="1"
     stroke="None"
     id="g77">
    <path
       d="m 766,597 c 11.33,0 22.67,0 34,0 0,-8 0,-16 0,-24 8.17,-0.66 17.66,1.33 25,-1 -5.03,-1.15 -11.93,0.4 -17,0 -5.07,-0.4 -12.28,-0.08 -17,0 -4.72,0.08 -13.04,-0.71 -16.77,0.23 -3.73,0.94 -7.79,5.8 -8.23,8.77 -0.44,2.97 -1.56,13.77 0,16 z"
       id="path77" />
  </g>
  <g
     fill="#535353"
     fill-opacity="1"
     stroke="None"
     id="g78">
    <path
       d="m 800,597 c 11.33,0 22.67,0 34,0 2.12,-3.03 -0.63,-13.04 -0.68,-16.32 -0.05,-3.28 -5.26,-7.98 -8.32,-8.68 -7.34,2.33 -16.83,0.34 -25,1 0,8 0,16 0,24 z"
       id="path78" />
  </g>
  <g
     fill="#c6e6f1"
     fill-opacity="1"
     stroke="None"
     id="g79">
    <path
       d="m 656,599 c -12.49,-4.73 -28.47,-7.71 -42,-10 13.54,3.94 27.65,7.28 42,10 z"
       id="path79" />
  </g>
  <g
     fill="#a8a8a8"
     fill-opacity="1"
     stroke="None"
     id="g80">
    <path
       d="m 834,597 c -11.33,0 -22.67,0 -34,0 -11.33,0 -22.67,0 -34,0 2.73,3.9 17.91,0.24 23,1 5.09,0.76 17.95,0.58 23,0 5.05,-0.58 19.36,2.78 22,-1 z"
       id="path80" />
  </g>
  <g
     fill="#b2d7e7"
     fill-opacity="1"
     stroke="None"
     id="g81">
    <path
       d="m 711,608 c -3.61,-2.67 -12.24,-1.74 -17,-2 5.27,0.86 10.99,2 17,2 z"
       id="path81" />
  </g>
  <g
     fill="#dbf3f9"
     fill-opacity="1"
     stroke="None"
     id="g82">
    <path
       d="m 754,611 c 9.81,0 18.03,0.31 28,0 9.97,-0.31 18.59,0.79 29,0 10.41,-0.79 16.47,1.87 28,0 11.53,-1.87 10.74,9.22 10,19 -0.74,9.78 0.32,18.37 0,28 -0.32,9.63 0.16,19.42 0,29 -0.16,9.58 0.08,18.44 0,28 -0.08,9.56 0.06,19.41 0,29 4.39,-3.08 -0.28,-16.14 1,-22 1.29,-5.86 -0.5,-16.26 0,-23 0.5,-6.74 -0.06,-15.98 0,-23 0.06,-7.02 0.34,-16.15 0,-23 -0.34,-6.85 0.98,-16.85 0,-23 -0.98,-6.15 3.61,-18.04 -3,-20 -6.61,-1.96 -15.82,0.84 -23,0 -7.18,-0.84 -15.57,0.27 -23,0 -7.43,-0.27 -15.47,-0.12 -23,0 -7.53,0.12 -15.48,-0.58 -23,0 -7.52,0.58 -14.08,-0.88 -21,-2 -6.92,-1.12 -14.97,0 -22,0 4.74,3.51 14.82,0.77 21,2 6.18,1.23 14.43,1 21,1 z"
       id="path82" />
  </g>
  <g
     fill="#80abc3"
     fill-opacity="1"
     stroke="None"
     id="g83">
    <path
       d="m 848,657 c 0,28.67 0,57.33 0,86 -24.84,0.67 -50.99,-1.33 -75,1 6.16,0 12.9,0.22 19,0 6.1,-0.22 13.11,0.58 19,0 5.89,-0.58 13.62,1.33 19,0 5.38,-1.33 14.76,2.97 19,0 0.06,-9.59 -0.08,-19.44 0,-29 0.08,-9.56 -0.16,-18.42 0,-28 0.16,-9.58 -0.32,-19.37 0,-29 0.32,-9.63 -0.74,-18.22 0,-28 0.74,-9.78 1.53,-20.87 -10,-19 -11.53,1.87 -17.59,-0.79 -28,0 -10.41,0.79 -19.03,-0.31 -29,0 -9.97,0.31 -18.19,0 -28,0 30.35,2.33 62.83,0.33 94,1 0,15 0,30 0,45 z"
       id="path83" />
  </g>
  <g
     fill="#bedce8"
     fill-opacity="1"
     stroke="None"
     id="g84">
    <path
       d="m 877,722 c -0.55,1.95 -2.33,4.45 -2,7 -4,0 -8,0 -12,0 0,-35 0,-70 0,-105 3.67,0 7.33,0 11,0 4.11,14.8 6.36,30.71 11,45 -1.93,-15.71 -6.44,-30.75 -10,-46 -18.35,-4.64 -12.52,14.55 -13,27 -0.48,12.45 0.25,27.13 0,40 -0.25,12.87 0.19,27.01 0,40 9.2,0.64 13.59,1.27 15,-8 z"
       id="path84" />
  </g>
  <g
     fill="#3178ac"
     fill-opacity="1"
     stroke="None"
     id="g85">
    <path
       d="m 877,722 c 2.72,-17.83 10.05,-34.69 8,-53 -4.64,-14.29 -6.89,-30.2 -11,-45 -3.67,0 -7.33,0 -11,0 0,35 0,70 0,105 4,0 8,0 12,0 -0.33,-2.55 1.45,-5.05 2,-7 z"
       id="path85" />
  </g>
  <g
     fill="#c5e4ef"
     fill-opacity="1"
     stroke="None"
     id="g86">
    <path
       d="m 479,688 c 0,11.38 1.5,22.51 3,33 -0.57,-14.8 -2.24,-30.24 -1.99,-44.99 0.25,-14.76 2.99,-28.3 2.99,-43.01 -3.15,17.59 -4,36.07 -4,55 z"
       id="path86" />
  </g>
  <g
     fill="#c5e1ec"
     fill-opacity="1"
     stroke="None"
     id="g87">
    <path
       d="m 1093,674 c 0.5,0 1,0 1,0 -0.91,-12.22 -5.11,-24.41 -10,-35 3.7,11.55 5.66,23.37 9,35 z"
       id="path87" />
  </g>
  <g
     fill="#bbdce9"
     fill-opacity="1"
     stroke="None"
     id="g88">
    <path
       d="m 473,729 c -2.65,-15.69 -4,-31.56 -4,-48 0,-8.21 -0.77,-16.83 0,-25 -4.56,21.65 -2.11,52.88 4,73 z"
       id="path88" />
  </g>
  <g
     fill="#296d9f"
     fill-opacity="1"
     stroke="None"
     id="g89">
    <path
       d="m 517,711 c 1.67,13.82 3.66,26.73 7,40 1.09,4.35 2.18,8.6 3,13 1.54,4.73 4.17,10.04 6,15 2.88,7.8 7.99,17.57 11.08,24.92 3.08,7.36 12.76,16.35 6.17,21.33 -6.59,4.98 -11.65,11.39 -18.5,16.5 -6.85,5.12 -10.94,-9.3 -14.98,-15.52 -4.04,-6.22 -7.92,-16.06 -11.46,-23.54 -3.55,-7.47 -7.54,-16.52 -10,-25 -2.47,-8.47 -6.58,-17.57 -8.32,-26.68 -1.74,-9.12 -4.62,-20.44 -4.99,-30.01 -1.5,-10.49 -3,-21.62 -3,-33 -2.93,-4.86 0.92,-13.07 -2,-18 0,5.33 0,10.67 0,16 -2.87,-0.03 -7.39,-3.11 -8,-5 0,16.44 1.35,32.31 4,48 1.82,10.78 4.43,21.25 6,32 1.2,4.38 3.6,9.33 5,14 6.31,21.07 16.51,39.85 25,60 4.93,8.65 11.5,17.08 16,26 12.48,-9.22 23.45,-21.61 36,-31 20.41,-14.88 40.56,-33.69 64,-43 13.58,-7.33 27.54,-14.32 42,-20 18.87,-7.41 39.7,-14.73 60,-17 3.96,-1.01 8.59,-2.25 13,-3 10.64,-1.8 22.03,-3 33,-3 24.01,-2.33 50.16,-0.33 75,-1 0,-28.67 0,-57.33 0,-86 -1.88,39.89 -39.23,51.94 -73.93,54.07 -34.7,2.14 -69.23,14.07 -102,26 -32.77,11.93 -57.45,26.44 -92.85,35.15 -35.4,8.71 -60.84,-33.08 -62.22,-64.22 -0.08,0.99 0.09,2.01 0,3 z"
       id="path89" />
  </g>
  <g
     fill="#537184"
     fill-opacity="1"
     stroke="None"
     id="g90">
    <path
       d="m 1014,662 c 0.23,0.45 0.9,2.68 1,3 6.31,3.75 13.13,-0.08 21,2 7.87,2.08 9.41,3.49 20,3 10.59,-0.49 28.41,9.48 38,4 0,0 -0.5,0 -1,0 -12.99,0 -27.32,-6.8 -40.33,-6.67 -13.01,0.13 -26.92,-6.85 -38.67,-5.33 z"
       id="path90" />
  </g>
  <g
     fill="#666665"
     fill-opacity="1"
     stroke="None"
     id="g91">
    <path
       d="m 868,945 c -3.55,6.23 2.14,17.99 0,25 -2.14,7.01 2.24,19.26 0,26 -2.24,6.74 3.91,19.37 0,24 9.53,-2.48 20.63,-4.86 29.77,-8.23 9.14,-3.37 17.32,-6.92 26,-11 8.68,-4.07 17.11,-7.42 25,-13 7.89,-5.58 15.22,-10.56 23,-3.54 7.78,7.02 15.46,8.79 23,15 7.54,6.21 15.48,8.09 22.23,14.77 6.98,-7.04 16.41,-14.62 22.75,-22.25 6.35,-7.63 16.76,-14.47 22.5,-21.5 5.74,-7.04 20.71,-14.34 18.67,-23.17 -2.04,-8.83 -14.88,-18.19 -17.67,-27.33 -2.78,-9.15 -17.9,-17.25 -13.55,-27.05 4.35,-9.8 11.97,-17.28 16.38,-27.62 4.41,-10.35 10.33,-19.68 13.94,-31.06 3.62,-11.38 8.76,-20.71 10.2,-33.8 1.44,-13.09 16.66,-13.6 28.71,-15.29 12.05,-1.69 24.83,-5.56 37.07,-6.93 0,-31 0,-62 0,-93 -10.38,-0.59 -21.49,-4.83 -31.78,-5.22 -10.29,-0.4 -20.12,-6.43 -30.22,-5.78 -9.59,5.48 -27.41,-4.49 -38,-4 -10.59,0.49 -12.13,-0.92 -20,-3 -7.87,-2.08 -14.69,1.75 -21,-2 36.15,113.62 -32.69,245.78 -147,280 z"
       id="path91" />
  </g>
  <g
     fill="#bedeec"
     fill-opacity="1"
     stroke="None"
     id="g92">
    <path
       d="m 446,778 c -6.55,-4.49 -0.37,-20.53 -2,-29 -1.63,-8.47 0.85,-22.48 0,-32 -0.85,-9.52 0.64,-22.19 0,-32 10.37,-0.58 4.9,15.13 7,23 2.1,7.87 0.12,18.83 4,26 -1.95,-16.86 -4.01,-33.66 -4,-51 -12.87,-0.46 -7.74,18.7 -8,28 -0.26,9.3 -0.99,26.26 0,35 0.99,8.74 -4.28,28.48 3,32 z"
       id="path92" />
  </g>
  <g
     fill="#2a6d9d"
     fill-opacity="1"
     stroke="None"
     id="g93">
    <path
       d="m 446,778 c 6.88,0.63 13.06,3.73 20,4 -4.11,-15.97 -9.72,-31.26 -11,-48 -3.88,-7.17 -1.9,-18.13 -4,-26 -2.1,-7.87 3.37,-23.58 -7,-23 0.64,9.81 -0.85,22.48 0,32 0.85,9.52 -1.63,23.53 0,32 1.63,8.47 -4.55,24.51 2,29 z"
       id="path93" />
  </g>
  <g
     fill="#b5d2de"
     fill-opacity="1"
     stroke="None"
     id="g94">
    <path
       d="m 727,750 c 5.03,-0.56 8.93,-1.77 13,-3 -4.41,0.75 -9.04,1.99 -13,3 z"
       id="path94" />
  </g>
  <g
     fill="#d6d6d5"
     fill-opacity="1"
     stroke="None"
     id="g95">
    <path
       d="m 766,897 c -0.04,0 0,-1 0,-1 0,-46 0,-92 0,-138 11.33,0 22.67,0 34,0 4.63,0 11.6,-1 16,0 4.4,1 13.48,-2.46 17,0 4.47,3.13 -0.35,16.09 1,22 1.35,5.9 -0.61,16.12 0,23 0.61,6.88 -0.27,15.67 0,23 0.27,7.33 -0.12,15.44 0,23 0.12,7.56 -0.05,15.27 0,23 0.05,7.73 -0.01,16.21 0,24 0,0.5 0,1 0,1 2.09,-9.09 0.66,-20.06 1,-30 0.34,-9.94 -0.24,-20.01 0,-30 0.24,-9.99 -0.31,-19.97 0,-30 0.31,-10.03 -0.59,-19.9 0,-30 0.59,-10.1 1.97,-21.82 -10,-20 -11.97,1.82 -18.97,-0.95 -30,0 -11.03,0.95 -19.23,-0.71 -30,0 0.05,7.86 -0.06,16.19 0,24 0.06,7.81 -0.13,15.27 0,23 0.13,7.73 -0.26,16.41 0,24 0.26,7.59 -0.6,15.76 0,23 0.6,7.24 -1.27,17.44 0,24 1.27,6.56 -3.42,17.75 1,22 z"
       id="path95" />
  </g>
  <g
     fill="#686868"
     fill-opacity="1"
     stroke="None"
     id="g96">
    <path
       d="m 766,896 c 11.12,-1.03 22.83,0 34,0 0,-46 0,-92 0,-138 -11.33,0 -22.67,0 -34,0 0,46 0,92 0,138 z"
       id="path96" />
  </g>
  <g
     fill="#484848"
     fill-opacity="1"
     stroke="None"
     id="g97">
    <path
       d="m 800,896 c 11,0 22,0 33,0 -4.06,-45.64 3.05,-92.27 0,-138 -3.52,-2.46 -12.6,1 -17,0 -4.4,-1 -11.37,0 -16,0 0,46 0,92 0,138 z"
       id="path97" />
  </g>
  <g
     fill="#676768"
     fill-opacity="1"
     stroke="None"
     id="g98">
    <path
       d="m 833,896 c 0.5,0 1,0 1,0 -0.01,-7.79 0.05,-16.27 0,-24 -0.05,-7.73 0.12,-15.44 0,-23 -0.12,-7.56 0.27,-15.67 0,-23 -0.27,-7.33 0.61,-16.12 0,-23 -0.61,-6.88 1.35,-17.1 0,-23 -1.35,-5.91 3.47,-18.87 -1,-22 3.05,45.73 -4.06,92.36 0,138 z"
       id="path98" />
  </g>
  <g
     fill="#bedce5"
     fill-opacity="1"
     stroke="None"
     id="g99">
    <path
       d="m 484,775 c -1.4,-4.67 -3.8,-9.62 -5,-14 0.82,5.59 3.03,9.38 5,14 z"
       id="path99" />
  </g>
  <g
     fill="#bedce4"
     fill-opacity="1"
     stroke="None"
     id="g100">
    <path
       d="m 533,779 c -1.83,-4.96 -4.46,-10.27 -6,-15 1.11,5.95 3.3,10.05 6,15 z"
       id="path100" />
  </g>
  <g
     fill="#bdd8e3"
     fill-opacity="1"
     stroke="None"
     id="g101">
    <path
       d="m 625,787 c 14.27,-5.67 28.84,-12.82 42,-20 -14.46,5.68 -28.42,12.67 -42,20 z"
       id="path101" />
  </g>
  <g
     fill="#454646"
     fill-opacity="1"
     stroke="None"
     id="g102">
    <path
       d="m 555,858 c -3.31,3.31 -16.11,13.48 -16,18 1.15,4.71 6.4,10.8 9,15 3.62,1.91 7.43,-5.99 10.75,-8.25 3.32,-2.26 7.72,-7.08 11,-10 3.29,-2.92 8.28,-6.25 11,-10 2.72,-3.75 9.08,-6.05 11.33,-9.67 2.25,-3.61 11.02,-5.65 11.92,-9.08 -3.21,-5.3 -7.05,-19.71 -13.75,-14.75 -6.71,4.95 -11.77,8.98 -18,14 -6.24,5.01 -11.16,9.55 -17.25,14.75 z"
       id="path102" />
  </g>
  <g
     fill="#bcd7e0"
     fill-opacity="1"
     stroke="None"
     id="g103">
    <path
       d="m 509,835 c 3.57,8.47 7.99,15.89 13.25,23.75 5.25,7.86 14.14,-6.9 19.5,-11 5.37,-4.09 13.76,-12.67 19.25,-17.75 -12.55,9.39 -23.52,21.78 -36,31 -4.5,-8.92 -11.07,-17.35 -16,-26 z"
       id="path103" />
  </g>
  <g
     fill="#666666"
     fill-opacity="1"
     stroke="None"
     id="g104">
    <path
       d="m 548,891 c 5.77,10.31 -7.12,20.08 -12.23,29.77 -5.11,9.69 -13.6,19.36 -18.77,29.23 21.62,20.79 43.16,42.33 64,64 7.84,-5.36 15.59,-8.51 23.25,-14.75 7.67,-6.24 15.67,-7.51 23.5,-14.5 7.84,-6.98 14.94,-3.3 23.02,2.48 8.08,5.78 15.89,8.98 24.54,13.46 8.64,4.49 17.9,7.55 27.01,10.99 9.11,3.44 19.14,6.31 28.68,8.32 -3.53,-3.74 -0.26,-12.93 -1,-18 -0.74,-5.07 -0.07,-13.75 0,-19 0.07,-5.25 -0.93,-14.29 0,-19 0.93,-4.71 -2.71,-16.56 1,-19 -50.65,-16.45 -98.75,-54.41 -127,-101 -0.9,3.43 -9.67,5.47 -11.92,9.08 -2.25,3.62 -8.61,5.92 -11.33,9.67 -2.72,3.75 -7.71,7.08 -11,10 -3.28,2.92 -7.68,7.74 -11,10 -3.32,2.26 -7.13,10.16 -10.75,8.25 z"
       id="path104" />
  </g>
  <g
     fill="#979998"
     fill-opacity="1"
     stroke="None"
     id="g105">
    <path
       d="m 539,876 c -0.11,-4.52 12.69,-14.69 16,-18 -4.03,3.44 -17.1,13.52 -16,18 z"
       id="path105" />
  </g>
  <g
     fill="#9e9e9e"
     fill-opacity="1"
     stroke="None"
     id="g106">
    <path
       d="m 766,897 c 21.43,1.94 46.57,1.95 68,0 0,0 0,-0.5 0,-1 0,0 -0.5,0 -1,0 -11,0 -22,0 -33,0 -11.17,0 -22.88,-1.03 -34,0 0,0 -0.04,1 0,1 z"
       id="path106" />
  </g>
  <g
     fill="#b6d8e7"
     fill-opacity="1"
     stroke="None"
     id="g107">
    <path
       d="m 773,1224 c -0.04,0 0,-1 0,-1 -13.31,-4.35 -5.52,-25.52 -7,-38 -1.48,-12.48 0.68,-32.07 0,-46 -0.68,-13.93 0.3,-30.37 0,-45 -0.3,-14.63 0.14,-31.06 0,-46 -0.14,-14.94 0.06,-29.9 0,-45 -0.06,-15.1 0.03,-30.79 0,-46 -0.03,-15.21 0.03,-30.76 0,-46 11.33,0 22.67,0 34,0 11.33,0 22.67,0 34,0 0.67,63.83 -1.33,128.99 1,192 0,-64.34 0,-128.67 0,-193 -12.24,0.56 -28.13,-0.74 -40,0 -11.87,0.74 -30.58,-5.11 -30,9 0.58,14.11 -0.27,25.5 0,39 0.27,13.5 -0.13,25.79 0,39 0.13,13.21 -0.08,25.93 0,39 0.08,13.07 -0.09,27.12 0,40 0.09,12.88 -0.16,26.54 0,39 0.16,12.46 -0.34,27.31 0,39 0.34,11.69 -0.74,28.96 0,39 0.74,10.04 -4.52,29.62 8,31 z"
       id="path107" />
  </g>
  <g
     fill="#368dc4"
     fill-opacity="1"
     stroke="None"
     id="g108">
    <path
       d="m 773,1223 c 8.83,-0.82 18.13,0 27,0 0,-104 0,-208 0,-312 -11.33,0 -22.67,0 -34,0 0.03,15.24 -0.03,30.79 0,46 0.03,15.21 -0.06,30.9 0,46 0.06,15.1 -0.14,30.06 0,45 0.14,14.94 -0.3,31.37 0,46 0.3,14.63 -0.68,31.07 0,45 0.68,13.93 -1.48,33.52 0,46 1.48,12.48 -6.31,33.65 7,38 z"
       id="path108" />
  </g>
  <g
     fill="#286d9e"
     fill-opacity="1"
     stroke="None"
     id="g109">
    <path
       d="m 800,1223 c 9.45,0 28.57,3.83 35,-4 6.58,-9.4 19.42,-18.71 14.78,-30.78 -4.64,-12.07 -7.16,-26.63 -9.85,-40.15 -2.7,-13.51 -4.93,-30.4 -4.93,-45.07 -2.33,-63.01 -0.33,-128.17 -1,-192 -11.33,0 -22.67,0 -34,0 0,104 0,208 0,312 m 18,-43 c 12.6,3.38 6.94,25.33 -6.22,21.22 -13.16,-4.11 -7.17,-24.81 6.22,-21.22 z"
       id="path109" />
  </g>
  <g
     fill="#454646"
     fill-opacity="1"
     stroke="None"
     id="g110">
    <path
       d="m 731,1020 c 12.05,-0.68 12.12,10.85 14.01,19.99 1.88,9.15 4.17,18.58 4.99,28.01 2.41,-11.23 0.23,-22.76 1,-35 0.77,-12.24 -1.1,-23.26 0,-36 1.1,-12.74 -2.15,-22.26 0,-36 2.15,-13.74 -9.47,-12.58 -20,-16 -3.71,2.44 -0.07,14.29 -1,19 -0.93,4.71 0.07,13.75 0,19 -0.07,5.25 -0.74,13.93 0,19 0.74,5.07 -2.53,14.26 1,18 z"
       id="path110" />
  </g>
  <g
     fill="#444545"
     fill-opacity="1"
     stroke="None"
     id="g111">
    <path
       d="m 849,950 c -2.87,36.94 3.38,75.97 1,112 2.7,-8.94 3.09,-15.52 5.02,-24.98 1.94,-9.45 2.6,-14.49 12.98,-17.02 3.91,-4.63 -2.24,-17.26 0,-24 2.24,-6.74 -2.14,-18.99 0,-26 2.14,-7.01 -3.55,-18.77 0,-25 -4.28,1.28 -16.09,1.66 -19,5 z"
       id="path111" />
  </g>
  <g
     fill="#8e8f8f"
     fill-opacity="1"
     stroke="None"
     id="g112">
    <path
       d="m 850,1062 c 2.38,-36.03 -3.87,-75.06 -1,-112 -2.33,37.68 -0.33,77.5 -1,116 1.53,-0.6 1.6,-2.67 2,-4 z"
       id="path112" />
  </g>
  <g
     fill="#f1f8f9"
     fill-opacity="1"
     stroke="None"
     id="g113">
    <path
       d="m 818,1180 c -13.39,-3.59 -19.38,17.11 -6.22,21.22 13.16,4.11 18.82,-17.84 6.22,-21.22 z"
       id="path113" />
  </g>
  <g
     fill="#8fb6cd"
     fill-opacity="1"
     stroke="None"
     id="g114">
    <path
       d="m 800,1223 c -8.87,0 -18.17,-0.82 -27,0 0,0 -0.04,1 0,1 10.2,0.92 24.06,0.12 34,0 9.94,-0.12 22.05,3.5 28,-5 -6.43,7.83 -25.55,4 -35,4 z"
       id="path114" />
  </g>
  <text
     xml:space="preserve"
     style="font-size:251.165px;text-align:start;writing-mode:lr-tb;direction:ltr;text-anchor:start;fill:#000000;stroke-width:1.50699"
     x="606.53809"
     y="1270.3296"
     id="text114"
     transform="scale(0.87118387,1.1478633)"><tspan
       id="tspan114"
       x="606.53809"
       y="1270.3296"
       style="font-style:italic;font-variant:normal;font-weight:bold;font-stretch:normal;font-family:sans-serif;-inkscape-font-specification:'sans-serif Bold Italic';stroke-width:1.50699">Axec</tspan></text>
</svg>
